<svg xmlns="http://www.w3.org/2000/svg" viewBox="0 0 565 89" width="565" height="89">
<path fill="#0B82BE" fill-rule="evenodd" d="M157.25,0.25 157.25,0.50 156.00,0.50 156.00,0.75 154.50,0.75 154.50,1.00 154.25,1.00 154.25,1.25 154.00,1.25 154.00,1.50 153.75,1.50 153.75,1.75 153.50,1.75 153.50,2.00 153.00,2.00 153.00,3.25 152.75,3.25 152.75,3.75 152.25,3.75 152.25,4.00 152.00,4.00 152.00,4.50 151.75,4.50 151.75,5.25 151.50,5.25 151.50,5.75 151.25,5.75 151.25,6.25 151.00,6.25 151.00,7.00 150.75,7.00 150.75,7.75 150.50,7.75 150.50,8.00 150.25,8.00 150.25,8.25 150.00,8.25 150.00,9.50 149.75,9.50 149.75,9.75 149.50,9.75 149.50,10.00 149.25,10.00 149.25,10.50 149.00,10.50 149.00,12.00 148.75,12.00 148.75,12.50 148.50,12.50 148.50,12.75 148.25,12.75 148.25,13.50 148.00,13.50 148.00,14.25 147.75,14.25 147.75,14.50 147.50,14.50 147.50,14.75 147.25,14.75 147.25,15.25 147.00,15.25 147.00,16.00 146.75,16.00 146.75,16.50 146.50,16.50 146.50,17.00 146.25,17.00 146.25,17.50 146.00,17.50 146.00,18.00 145.75,18.00 145.75,18.50 145.50,18.50 145.50,19.00 145.25,19.00 145.25,19.50 145.00,19.50 145.00,20.00 144.75,20.00 144.75,20.25 144.50,20.25 144.50,20.75 144.25,20.75 144.25,21.25 144.00,21.25 144.00,21.75 143.75,21.75 143.75,22.00 143.50,22.00 143.50,23.00 143.25,23.00 143.25,23.50 143.00,23.50 143.00,24.00 142.75,24.00 142.75,24.50 142.50,24.50 142.50,25.00 142.25,25.00 142.25,25.50 142.00,25.50 142.00,26.00 141.75,26.00 141.75,26.25 141.50,26.25 141.50,26.50 141.25,26.50 141.25,27.00 141.00,27.00 141.00,28.50 140.75,28.50 140.75,28.75 140.50,28.75 140.50,29.25 140.25,29.25 140.25,30.25 140.00,30.25 140.00,31.00 139.75,31.00 139.75,31.25 139.50,31.25 139.50,31.75 139.25,31.75 139.25,32.50 139.00,32.50 139.00,32.75 138.75,32.75 138.75,33.00 138.50,33.00 138.50,34.25 138.25,34.25 138.25,34.50 138.00,34.50 138.00,34.75 137.75,34.75 137.75,35.25 137.50,35.25 137.50,36.25 137.25,36.25 137.25,36.50 137.00,36.50 137.00,36.75 136.75,36.75 136.75,37.00 136.50,37.00 136.50,37.75 136.25,37.75 136.25,38.50 136.00,38.50 136.00,38.75 135.75,38.75 135.75,39.00 135.50,39.00 135.50,39.25 135.25,39.25 135.25,40.75 135.00,40.75 135.00,41.00 134.50,41.00 134.50,41.50 134.25,41.50 134.25,42.50 134.00,42.50 134.00,42.75 133.75,42.75 133.75,43.00 133.50,43.00 133.50,43.25 133.25,43.25 133.25,44.50 133.50,44.50 133.50,45.50 133.25,45.50 133.25,45.75 133.00,45.75 133.00,46.00 132.75,46.00 132.75,46.25 132.50,46.25 132.50,47.25 132.25,47.25 132.25,47.50 132.00,47.50 132.00,47.75 131.75,47.75 131.75,48.00 131.50,48.00 131.50,49.50 131.00,49.50 131.00,49.75 130.50,49.75 130.50,50.25 130.25,50.25 130.25,50.75 130.50,50.75 130.50,51.50 130.25,51.50 130.25,51.75 129.75,51.75 129.75,52.00 129.50,52.00 129.50,53.25 129.25,53.25 129.25,53.50 129.00,53.50 129.00,53.75 128.75,53.75 128.75,54.25 128.50,54.25 128.50,55.00 128.25,55.00 128.25,55.50 128.00,55.50 128.00,56.00 127.75,56.00 127.75,56.50 127.50,56.50 127.50,57.00 127.25,57.00 127.25,57.25 127.00,57.25 127.00,57.50 126.75,57.50 126.75,58.75 126.50,58.75 126.50,59.25 126.25,59.25 126.25,59.50 126.00,59.50 126.00,59.75 125.75,59.75 125.75,60.25 125.50,60.25 125.50,62.00 125.25,62.00 125.25,62.25 125.00,62.25 125.00,62.50 124.75,62.50 124.75,63.00 124.50,63.00 124.50,63.75 124.25,63.75 124.25,64.00 124.00,64.00 124.00,64.25 123.75,64.25 123.75,65.00 123.50,65.00 123.50,66.00 123.25,66.00 123.25,66.25 123.00,66.25 123.00,67.00 122.75,67.00 122.75,67.50 122.50,67.50 122.50,67.75 122.25,67.75 122.25,68.25 122.00,68.25 122.00,69.00 122.25,69.00 122.25,69.50 124.25,69.50 124.25,69.75 141.00,69.75 141.00,69.50 141.50,69.50 141.50,69.25 142.00,69.25 142.00,69.00 142.25,69.00 142.25,68.75 142.50,68.75 142.50,68.25 142.75,68.25 142.75,67.75 143.00,67.75 143.00,67.25 143.25,67.25 143.25,67.00 143.50,67.00 143.50,66.50 143.75,66.50 143.75,66.00 144.00,66.00 144.00,65.00 144.25,65.00 144.25,64.00 144.50,64.00 144.50,63.50 144.75,63.50 144.75,63.25 145.00,63.25 145.00,62.75 145.25,62.75 145.25,62.25 145.50,62.25 145.50,61.50 145.75,61.50 145.75,61.25 146.00,61.25 146.00,61.00 146.25,61.00 146.25,60.50 146.50,60.50 146.50,60.00 146.75,60.00 146.75,58.50 147.00,58.50 147.00,58.00 147.25,58.00 147.25,57.75 147.50,57.75 147.50,57.50 147.75,57.50 147.75,56.50 148.00,56.50 148.00,56.25 148.25,56.25 148.25,56.00 148.50,56.00 148.50,54.50 148.75,54.50 148.75,54.25 149.00,54.25 149.00,54.00 149.25,54.00 149.25,53.75 149.50,53.75 149.50,52.50 149.75,52.50 149.75,52.25 150.00,52.25 150.00,52.00 150.25,52.00 150.25,51.75 150.50,51.75 150.50,50.75 150.75,50.75 150.75,50.25 151.00,50.25 151.00,50.00 151.50,50.00 151.50,48.50 151.75,48.50 151.75,48.25 152.00,48.25 152.00,48.00 152.50,48.00 152.50,46.50 152.75,46.50 152.75,46.25 153.25,46.25 153.25,46.00 153.50,46.00 153.50,45.25 153.25,45.25 153.25,44.75 153.50,44.75 153.50,44.25 154.00,44.25 154.00,44.00 154.25,44.00 154.25,43.75 154.50,43.75 154.50,42.50 154.75,42.50 154.75,42.25 155.00,42.25 155.00,42.00 155.25,42.00 155.25,41.75 155.50,41.75 155.50,39.50 155.75,39.50 155.75,39.25 156.25,39.25 156.25,38.75 156.50,38.75 156.50,37.75 156.75,37.75 156.75,37.50 157.00,37.50 157.00,37.00 157.25,37.00 157.25,36.50 157.50,36.50 157.50,35.75 157.75,35.75 157.75,35.50 158.00,35.50 158.00,35.25 158.25,35.25 158.25,35.00 158.50,35.00 158.50,33.75 158.75,33.75 158.75,33.50 159.00,33.50 159.00,33.25 159.25,33.25 159.25,32.75 159.50,32.75 159.50,31.75 159.75,31.75 159.75,31.25 160.00,31.25 160.00,30.75 160.25,30.75 160.25,30.00 160.50,30.00 160.50,29.75 160.75,29.75 160.75,29.25 161.00,29.25 161.00,29.00 161.25,29.00 161.25,28.25 161.50,28.25 161.50,27.75 161.75,27.75 161.75,27.50 162.00,27.50 162.00,27.00 162.25,27.00 162.25,26.25 162.50,26.25 162.50,25.75 162.75,25.75 162.75,25.50 163.00,25.50 163.00,25.25 163.25,25.25 163.25,24.75 163.50,24.75 163.50,24.25 163.25,24.25 163.25,23.25 163.50,23.25 163.50,23.00 163.75,23.00 163.75,22.75 164.00,22.75 164.00,22.25 164.25,22.25 164.25,21.25 164.50,21.25 164.50,21.00 164.75,21.00 164.75,20.75 165.00,20.75 165.00,20.00 165.25,20.00 165.25,19.25 165.50,19.25 165.50,19.00 165.75,19.00 165.75,18.75 166.00,18.75 166.00,18.25 166.25,18.25 166.25,17.25 166.50,17.25 166.50,17.00 166.75,17.00 166.75,16.75 167.00,16.75 167.00,16.25 167.25,16.25 167.25,15.50 167.50,15.50 167.50,15.00 167.75,15.00 167.75,14.75 168.00,14.75 168.00,14.25 168.25,14.25 168.25,13.50 168.50,13.50 168.50,13.00 168.75,13.00 168.75,12.75 169.00,12.75 169.00,12.25 169.25,12.25 169.25,11.25 169.50,11.25 169.50,11.00 169.75,11.00 169.75,10.75 170.00,10.75 170.00,10.25 170.25,10.25 170.25,9.50 170.50,9.50 170.50,9.25 170.75,9.25 170.75,9.00 171.00,9.00 171.00,8.50 171.25,8.50 171.25,6.50 171.50,6.50 171.50,6.25 171.75,6.25 171.75,6.00 172.00,6.00 172.00,5.75 172.25,5.75 172.25,4.50 172.50,4.50 172.50,4.25 172.75,4.25 172.75,4.00 173.00,4.00 173.00,3.75 173.25,3.75 173.25,2.25 173.75,2.25 173.75,2.00 174.00,2.00 174.00,1.75 174.25,1.75 174.25,1.25 174.00,1.25 174.00,1.00 173.75,1.00 173.75,0.75 171.75,0.75 171.75,0.50 157.75,0.50 157.75,0.25ZM186.25,0.50 186.25,0.75 186.00,0.75 186.00,1.00 185.75,1.00 185.75,1.25 185.50,1.25 185.50,1.50 185.25,1.50 185.25,1.75 185.00,1.75 185.00,2.00 184.75,2.00 184.75,2.25 184.50,2.25 184.50,3.50 184.25,3.50 184.25,3.75 184.00,3.75 184.00,4.00 183.50,4.00 183.50,5.50 183.25,5.50 183.25,5.75 182.75,5.75 182.75,6.00 182.50,6.00 182.50,7.50 182.25,7.50 182.25,7.75 182.00,7.75 182.00,8.00 181.75,8.00 181.75,8.75 181.50,8.75 181.50,9.25 181.25,9.25 181.25,9.50 181.00,9.50 181.00,10.00 180.75,10.00 180.75,10.50 180.50,10.50 180.50,11.25 180.25,11.25 180.25,11.50 180.00,11.50 180.00,11.75 179.75,11.75 179.75,12.25 179.50,12.25 179.50,14.00 179.25,14.00 179.25,14.50 179.00,14.50 179.00,14.75 178.75,14.75 178.75,15.50 178.50,15.50 178.50,16.25 178.25,16.25 178.25,16.50 178.00,16.50 178.00,17.00 177.75,17.00 177.75,17.75 177.50,17.75 177.50,18.25 177.00,18.25 177.00,18.75 176.75,18.75 176.75,19.75 176.50,19.75 176.50,20.00 176.25,20.00 176.25,20.25 176.00,20.25 176.00,20.75 175.75,20.75 175.75,21.50 175.50,21.50 175.50,22.00 175.25,22.00 175.25,22.25 175.00,22.25 175.00,22.75 174.75,22.75 174.75,23.25 174.50,23.25 174.50,24.00 174.25,24.00 174.25,24.25 174.00,24.25 174.00,24.50 173.75,24.50 173.75,25.75 173.50,25.75 173.50,26.00 173.25,26.00 173.25,26.25 173.00,26.25 173.00,26.75 172.75,26.75 172.75,27.75 172.50,27.75 172.50,28.00 172.25,28.00 172.25,28.25 172.00,28.25 172.00,28.75 171.75,28.75 171.75,29.50 171.50,29.50 171.50,29.75 171.25,29.75 171.25,30.00 171.00,30.00 171.00,30.25 170.75,30.25 170.75,32.75 170.50,32.75 170.50,33.00 170.25,33.00 170.25,33.25 170.00,33.25 170.00,33.75 169.75,33.75 169.75,34.50 169.50,34.50 169.50,35.00 169.25,35.00 169.25,35.25 169.00,35.25 169.00,35.75 168.75,35.75 168.75,36.50 168.50,36.50 168.50,36.75 168.25,36.75 168.25,37.00 168.00,37.00 168.00,37.75 167.75,37.75 167.75,38.50 167.50,38.50 167.50,38.75 167.25,38.75 167.25,39.00 167.00,39.00 167.00,39.25 166.75,39.25 166.75,40.75 166.50,40.75 166.50,41.00 166.00,41.00 166.00,41.25 165.75,41.25 165.75,42.75 165.25,42.75 165.25,43.00 165.00,43.00 165.00,43.25 164.75,43.25 164.75,44.50 164.50,44.50 164.50,44.75 164.25,44.75 164.25,45.00 164.00,45.00 164.00,45.25 163.75,45.25 163.75,46.75 163.25,46.75 163.25,47.00 163.00,47.00 163.00,47.25 162.75,47.25 162.75,49.75 162.50,49.75 162.50,50.00 162.00,50.00 162.00,50.75 161.75,50.75 161.75,51.75 161.25,51.75 161.25,52.00 161.00,52.00 161.00,52.25 160.75,52.25 160.75,53.50 160.50,53.50 160.50,53.75 160.25,53.75 160.25,54.00 160.00,54.00 160.00,54.25 159.75,54.25 159.75,55.75 159.25,55.75 159.25,56.00 159.00,56.00 159.00,56.50 158.75,56.50 158.75,57.00 158.50,57.00 158.50,57.50 158.25,57.50 158.25,58.00 158.00,58.00 158.00,58.75 157.75,58.75 157.75,59.25 157.50,59.25 157.50,59.50 157.25,59.50 157.25,59.75 157.00,59.75 157.00,60.50 156.75,60.50 156.75,61.00 156.50,61.00 156.50,61.25 156.25,61.25 156.25,61.75 156.00,61.75 156.00,62.25 155.75,62.25 155.75,63.00 155.50,63.00 155.50,63.50 155.25,63.50 155.25,64.00 155.00,64.00 155.00,64.50 154.75,64.50 154.75,66.00 154.50,66.00 154.50,66.50 154.25,66.50 154.25,67.00 154.00,67.00 154.00,67.50 153.75,67.50 153.75,68.00 153.50,68.00 153.50,68.75 153.75,68.75 153.75,69.25 154.00,69.25 154.00,69.50 154.50,69.50 154.50,69.75 157.50,69.75 157.50,70.00 158.25,70.00 158.25,69.75 169.75,69.75 169.75,70.00 170.50,70.00 170.50,69.75 172.75,69.75 172.75,69.50 173.00,69.50 173.00,69.25 173.25,69.25 173.25,68.75 173.50,68.75 173.50,68.50 173.75,68.50 173.75,68.25 174.00,68.25 174.00,68.00 174.25,68.00 174.25,67.25 174.50,67.25 174.50,66.75 174.75,66.75 174.75,66.50 175.00,66.50 175.00,66.00 175.25,66.00 175.25,65.50 175.50,65.50 175.50,64.75 175.75,64.75 175.75,64.50 176.00,64.50 176.00,64.00 176.25,64.00 176.25,63.25 176.50,63.25 176.50,62.75 176.75,62.75 176.75,62.50 177.00,62.50 177.00,62.00 177.25,62.00 177.25,60.50 177.50,60.50 177.50,60.00 177.75,60.00 177.75,59.75 178.00,59.75 178.00,59.00 178.25,59.00 178.25,58.25 178.50,58.25 178.50,58.00 178.75,58.00 178.75,57.50 179.00,57.50 179.00,56.75 179.25,56.75 179.25,56.25 179.50,56.25 179.50,56.00 179.75,56.00 179.75,55.75 180.00,55.75 180.00,55.00 180.25,55.00 180.25,54.50 180.50,54.50 180.50,54.00 180.75,54.00 180.75,53.50 181.00,53.50 181.00,53.00 181.25,53.00 181.25,52.50 181.50,52.50 181.50,52.25 181.75,52.25 181.75,51.75 182.00,51.75 182.00,51.00 182.25,51.00 182.25,50.50 182.50,50.50 182.50,50.00 183.00,50.00 183.00,49.50 183.25,49.50 183.25,48.25 183.50,48.25 183.50,48.00 183.75,48.00 183.75,47.75 184.00,47.75 184.00,46.75 184.25,46.75 184.25,46.25 184.50,46.25 184.50,46.00 185.00,46.00 185.00,43.75 185.25,43.75 185.25,43.50 185.50,43.50 185.50,43.25 185.75,43.25 185.75,42.75 186.00,42.75 186.00,42.00 186.25,42.00 186.25,41.50 186.50,41.50 186.50,41.25 186.75,41.25 186.75,41.00 187.00,41.00 187.00,40.00 187.25,40.00 187.25,39.50 187.50,39.50 187.50,39.25 187.75,39.25 187.75,39.00 188.00,39.00 188.00,38.75 188.25,38.75 188.25,37.25 188.50,37.25 188.50,37.00 188.75,37.00 188.75,36.75 189.00,36.75 189.00,36.00 189.25,36.00 189.25,35.25 189.50,35.25 189.50,35.00 189.75,35.00 189.75,34.75 190.00,34.75 190.00,34.00 190.25,34.00 190.25,33.50 190.50,33.50 190.50,33.00 190.75,33.00 190.75,32.75 191.00,32.75 191.00,32.25 191.25,32.25 191.25,31.75 191.50,31.75 191.50,31.00 191.75,31.00 191.75,30.50 192.00,30.50 192.00,30.00 192.25,30.00 192.25,29.75 192.50,29.75 192.50,29.25 192.75,29.25 192.75,28.75 193.00,28.75 193.00,27.00 193.25,27.00 193.25,26.75 193.50,26.75 193.50,26.25 193.75,26.25 193.75,26.00 194.00,26.00 194.00,25.00 194.25,25.00 194.25,24.50 194.50,24.50 194.50,24.25 194.75,24.25 194.75,24.00 195.00,24.00 195.00,23.25 195.25,23.25 195.25,22.50 195.50,22.50 195.50,22.25 195.75,22.25 195.75,21.75 196.00,21.75 196.00,21.25 196.25,21.25 196.25,20.75 196.50,20.75 196.50,20.25 196.75,20.25 196.75,19.75 197.00,19.75 197.00,19.00 197.25,19.00 197.25,18.50 197.50,18.50 197.50,18.25 197.75,18.25 197.75,17.75 198.00,17.75 198.00,16.75 198.25,16.75 198.25,16.25 198.50,16.25 198.50,16.00 198.75,16.00 198.75,15.50 199.00,15.50 199.00,15.00 199.25,15.00 199.25,14.50 199.50,14.50 199.50,14.00 199.75,14.00 199.75,13.25 200.00,13.25 200.00,13.00 200.25,13.00 200.25,12.75 200.50,12.75 200.50,12.25 200.75,12.25 200.75,10.25 201.00,10.25 201.00,10.00 201.25,10.00 201.25,9.75 201.50,9.75 201.50,9.00 201.75,9.00 201.75,8.50 202.00,8.50 202.00,8.25 202.25,8.25 202.25,8.00 202.50,8.00 202.50,7.75 202.75,7.75 202.75,6.50 203.00,6.50 203.00,6.25 203.25,6.25 203.25,6.00 203.50,6.00 203.50,4.75 203.75,4.75 203.75,4.25 204.25,4.25 204.25,4.00 204.50,4.00 204.50,2.50 204.75,2.50 204.75,2.25 205.25,2.25 205.25,2.00 205.50,2.00 205.50,1.25 205.25,1.25 205.25,1.00 204.75,1.00 204.75,0.75 202.25,0.75 202.25,0.50 200.75,0.50 200.75,0.75 200.00,0.75 200.00,0.50ZM39.00,18.25 39.00,18.50 38.50,18.50 38.50,18.75 38.00,18.75 38.00,19.00 37.50,19.00 37.50,19.25 33.75,19.25 33.75,19.50 33.25,19.50 33.25,19.75 33.00,19.75 33.00,20.00 32.25,20.00 32.25,20.25 30.50,20.25 30.50,20.50 30.00,20.50 30.00,20.75 29.75,20.75 29.75,21.00 29.25,21.00 29.25,21.25 28.75,21.25 28.75,21.50 28.25,21.50 28.25,21.75 27.50,21.75 27.50,22.00 27.00,22.00 27.00,22.25 26.25,22.25 26.25,22.50 25.75,22.50 25.75,22.75 25.25,22.75 25.25,23.00 25.00,23.00 25.00,23.25 24.75,23.25 24.75,23.50 24.50,23.50 24.50,23.75 24.00,23.75 24.00,24.00 23.25,24.00 23.25,24.25 23.00,24.25 23.00,24.50 22.50,24.50 22.50,24.75 21.75,24.75 21.75,25.00 21.25,25.00 21.25,25.25 20.75,25.25 20.75,25.50 20.50,25.50 20.50,25.75 20.25,25.75 20.25,26.00 19.75,26.00 19.75,26.25 19.50,26.25 19.50,26.50 19.25,26.50 19.25,26.75 19.00,26.75 19.00,27.25 18.75,27.25 18.75,27.50 18.50,27.50 18.50,27.75 17.75,27.75 17.75,28.00 17.25,28.00 17.25,28.25 16.75,28.25 16.75,28.50 16.50,28.50 16.50,28.75 16.00,28.75 16.00,29.00 15.75,29.00 15.75,29.50 15.50,29.50 15.50,29.75 15.25,29.75 15.25,30.00 15.00,30.00 15.00,30.25 14.75,30.25 14.75,30.50 14.50,30.50 14.50,30.75 14.25,30.75 14.25,31.00 14.00,31.00 14.00,31.25 13.75,31.25 13.75,31.50 13.50,31.50 13.50,31.75 13.25,31.75 13.25,32.00 13.00,32.00 13.00,32.25 12.75,32.25 12.75,32.50 12.50,32.50 12.50,32.75 12.25,32.75 12.25,33.00 12.00,33.00 12.00,33.25 11.75,33.25 11.75,33.50 11.50,33.50 11.50,33.75 11.25,33.75 11.25,34.00 11.00,34.00 11.00,34.25 10.75,34.25 10.75,35.00 10.50,35.00 10.50,35.75 10.25,35.75 10.25,36.00 10.00,36.00 10.00,36.25 9.75,36.25 9.75,36.50 9.50,36.50 9.50,36.75 9.25,36.75 9.25,37.00 9.00,37.00 9.00,37.25 8.75,37.25 8.75,38.50 8.50,38.50 8.50,38.75 8.25,38.75 8.25,39.00 8.00,39.00 8.00,39.50 7.75,39.50 7.75,39.75 7.25,39.75 7.25,40.00 7.00,40.00 7.00,40.25 6.75,40.25 6.75,41.50 6.50,41.50 6.50,41.75 6.25,41.75 6.25,42.00 6.00,42.00 6.00,42.25 5.75,42.25 5.75,43.50 5.50,43.50 5.50,43.75 5.00,43.75 5.00,44.00 4.75,44.00 4.75,45.25 4.50,45.25 4.50,45.50 4.25,45.50 4.25,45.75 4.00,45.75 4.00,46.00 3.75,46.00 3.75,47.50 3.50,47.50 3.50,47.75 3.00,47.75 3.00,48.00 2.75,48.00 2.75,50.25 2.50,50.25 2.50,50.50 2.25,50.50 2.25,50.75 2.00,50.75 2.00,51.00 1.75,51.00 1.75,60.25 2.00,60.25 2.00,60.75 2.25,60.75 2.25,61.25 2.50,61.25 2.50,61.75 2.75,61.75 2.75,62.50 3.00,62.50 3.00,62.75 3.25,62.75 3.25,63.00 3.50,63.00 3.50,63.50 3.75,63.50 3.75,64.25 4.00,64.25 4.00,64.75 4.50,64.75 4.50,65.25 4.75,65.25 4.75,65.50 5.00,65.50 5.00,65.75 5.25,65.75 5.25,66.00 5.50,66.00 5.50,66.25 5.75,66.25 5.75,66.50 6.00,66.50 6.00,66.75 7.00,66.75 7.00,67.00 7.75,67.00 7.75,67.50 8.00,67.50 8.00,67.75 8.25,67.75 8.25,68.00 8.75,68.00 8.75,68.25 9.00,68.25 9.00,68.50 9.50,68.50 9.50,68.75 11.00,68.75 11.00,69.00 11.50,69.00 11.50,69.25 11.75,69.25 11.75,69.50 12.25,69.50 12.25,69.75 16.75,69.75 16.75,70.00 17.25,70.00 17.25,70.25 17.75,70.25 17.75,70.50 18.25,70.50 18.25,70.75 21.75,70.75 21.75,70.50 22.50,70.50 22.50,70.75 24.25,70.75 24.25,70.50 25.00,70.50 25.00,70.75 27.75,70.75 27.75,70.50 28.50,70.50 28.50,70.25 29.25,70.25 29.25,70.00 31.50,70.00 31.50,69.75 34.00,69.75 34.00,69.50 34.50,69.50 34.50,69.25 35.00,69.25 35.00,69.00 35.50,69.00 35.50,68.75 36.75,68.75 36.75,68.50 37.25,68.50 37.25,68.25 38.00,68.25 38.00,68.00 39.50,68.00 39.50,67.75 40.00,67.75 40.00,67.50 40.25,67.50 40.25,67.25 40.50,67.25 40.50,67.00 41.00,67.00 41.00,66.75 42.00,66.75 42.00,66.50 42.25,66.50 42.25,66.25 42.75,66.25 42.75,66.00 43.50,66.00 43.50,65.75 44.00,65.75 44.00,65.50 44.25,65.50 44.25,65.25 44.50,65.25 44.50,65.00 45.75,65.00 45.75,64.75 46.00,64.75 46.00,64.50 46.25,64.50 46.25,64.25 46.75,64.25 46.75,64.00 47.00,64.00 47.00,63.75 47.25,63.75 47.25,63.25 47.75,63.25 47.75,63.00 48.50,63.00 48.50,62.75 48.75,62.75 48.75,62.50 49.00,62.50 49.00,62.25 49.25,62.25 49.25,62.00 49.75,62.00 49.75,61.75 50.00,61.75 50.00,61.50 50.25,61.50 50.25,61.25 50.50,61.25 50.50,61.00 50.75,61.00 50.75,60.75 51.25,60.75 51.25,60.50 51.50,60.50 51.50,60.25 51.75,60.25 51.75,60.00 52.00,60.00 52.00,59.75 52.25,59.75 52.25,59.50 52.50,59.50 52.50,59.25 52.75,59.25 52.75,58.75 53.00,58.75 53.00,58.50 53.25,58.50 53.25,58.25 53.50,58.25 53.50,58.00 54.00,58.00 54.00,57.50 54.25,57.50 54.25,57.25 54.50,57.25 54.50,57.00 54.75,57.00 54.75,56.75 55.00,56.75 55.00,56.50 55.25,56.50 55.25,56.25 55.50,56.25 55.50,56.00 55.75,56.00 55.75,55.75 56.00,55.75 56.00,55.50 56.25,55.50 56.25,55.25 56.50,55.25 56.50,55.00 56.75,55.00 56.75,54.75 57.00,54.75 57.00,54.50 57.25,54.50 57.25,54.25 57.75,54.25 57.75,54.00 58.00,54.00 58.00,53.75 58.25,53.75 58.25,53.25 58.50,53.25 58.50,53.00 58.75,53.00 58.75,52.75 59.00,52.75 59.00,52.50 59.25,52.50 59.25,51.25 59.00,51.25 59.00,50.75 58.25,50.75 58.25,50.50 57.25,50.50 57.25,50.75 55.75,50.75 55.75,50.50 54.75,50.50 54.75,50.75 54.00,50.75 54.00,50.50 52.50,50.50 52.50,50.25 52.25,50.25 52.25,50.00 52.00,50.00 52.00,49.75 47.00,49.75 47.00,49.50 45.75,49.50 45.75,49.75 43.75,49.75 43.75,49.50 43.50,49.50 43.50,49.25 43.25,49.25 43.25,49.00 42.75,49.00 42.75,48.75 41.50,48.75 41.50,49.00 41.00,49.00 41.00,49.50 40.75,49.50 40.75,49.75 40.50,49.75 40.50,50.00 40.00,50.00 40.00,51.00 39.75,51.00 39.75,51.75 39.25,51.75 39.25,52.00 39.00,52.00 39.00,52.25 38.75,52.25 38.75,52.50 38.25,52.50 38.25,52.75 37.50,52.75 37.50,53.00 37.00,53.00 37.00,53.25 36.75,53.25 36.75,53.50 36.50,53.50 36.50,54.00 36.25,54.00 36.25,54.25 36.00,54.25 36.00,54.50 35.00,54.50 35.00,54.75 34.25,54.75 34.25,55.00 34.00,55.00 34.00,55.25 33.75,55.25 33.75,55.50 33.25,55.50 33.25,55.75 33.00,55.75 33.00,55.50 32.25,55.50 32.25,55.75 32.00,55.75 32.00,56.00 31.75,56.00 31.75,56.25 31.50,56.25 31.50,56.50 30.75,56.50 30.75,56.25 29.00,56.25 29.00,56.50 26.50,56.50 26.50,56.25 26.25,56.25 26.25,56.00 25.75,56.00 25.75,55.75 24.75,55.75 24.75,55.50 24.25,55.50 24.25,55.25 24.00,55.25 24.00,55.00 23.75,55.00 23.75,54.75 23.50,54.75 23.50,54.50 23.25,54.50 23.25,52.75 23.00,52.75 23.00,49.50 23.25,49.50 23.25,49.00 23.75,49.00 23.75,48.50 24.00,48.50 24.00,46.50 24.25,46.50 24.25,46.00 24.75,46.00 24.75,45.75 25.00,45.75 25.00,45.00 24.75,45.00 24.75,44.50 25.00,44.50 25.00,44.25 25.25,44.25 25.25,44.00 25.75,44.00 25.75,43.50 26.00,43.50 26.00,42.50 26.25,42.50 26.25,42.25 26.50,42.25 26.50,42.00 26.75,42.00 26.75,41.75 27.00,41.75 27.00,40.50 27.25,40.50 27.25,40.25 27.50,40.25 27.50,40.00 27.75,40.00 27.75,39.75 28.00,39.75 28.00,39.50 28.25,39.50 28.25,39.25 28.50,39.25 28.50,39.00 28.75,39.00 28.75,38.75 29.00,38.75 29.00,38.50 29.25,38.50 29.25,38.25 29.50,38.25 29.50,38.00 29.75,38.00 29.75,37.75 30.00,37.75 30.00,37.50 30.25,37.50 30.25,37.25 30.50,37.25 30.50,37.00 30.75,37.00 30.75,36.75 31.00,36.75 31.00,36.50 31.25,36.50 31.25,36.25 31.50,36.25 31.50,36.00 31.75,36.00 31.75,35.75 32.00,35.75 32.00,35.50 32.25,35.50 32.25,35.25 32.50,35.25 32.50,35.00 32.75,35.00 32.75,34.75 33.50,34.75 33.50,34.50 34.00,34.50 34.00,34.25 34.25,34.25 34.25,34.00 34.50,34.00 34.50,33.75 35.00,33.75 35.00,33.50 36.75,33.50 36.75,33.25 37.25,33.25 37.25,33.00 37.75,33.00 37.75,32.75 38.00,32.75 38.00,32.50 42.50,32.50 42.50,32.75 43.75,32.75 43.75,33.00 44.00,33.00 44.00,33.50 44.25,33.50 44.25,33.75 44.50,33.75 44.50,34.00 45.00,34.00 45.00,34.25 45.50,34.25 45.50,34.50 45.75,34.50 45.75,36.50 46.00,36.50 46.00,37.75 46.25,37.75 46.25,38.00 46.50,38.00 46.50,38.25 50.75,38.25 50.75,38.50 52.50,38.50 52.50,38.25 53.00,38.25 53.00,38.00 53.50,38.00 53.50,37.75 53.75,37.75 53.75,37.50 55.00,37.50 55.00,37.25 56.00,37.25 56.00,37.50 57.00,37.50 57.00,37.25 58.25,37.25 58.25,37.50 59.50,37.50 59.50,37.25 60.75,37.25 60.75,37.50 61.75,37.50 61.75,37.25 62.00,37.25 62.00,37.00 62.25,37.00 62.25,36.75 62.50,36.75 62.50,36.50 62.75,36.50 62.75,36.25 65.75,36.25 65.75,36.00 66.00,36.00 66.00,35.50 66.25,35.50 66.25,34.75 66.00,34.75 66.00,34.00 66.25,34.00 66.25,28.50 66.00,28.50 66.00,27.75 65.75,27.75 65.75,27.25 65.50,27.25 65.50,27.00 65.25,27.00 65.25,26.25 65.00,26.25 65.00,25.50 64.75,25.50 64.75,25.25 64.50,25.25 64.50,24.75 64.25,24.75 64.25,24.00 64.00,24.00 64.00,23.50 63.75,23.50 63.75,23.25 63.50,23.25 63.50,23.00 63.25,23.00 63.25,22.75 63.00,22.75 63.00,22.50 62.50,22.50 62.50,22.25 62.25,22.25 62.25,21.75 62.00,21.75 62.00,21.50 61.75,21.50 61.75,21.25 60.50,21.25 60.50,21.00 60.25,21.00 60.25,20.75 60.00,20.75 60.00,20.50 59.75,20.50 59.75,20.25 59.25,20.25 59.25,20.00 59.00,20.00 59.00,20.25 57.50,20.25 57.50,20.00 57.25,20.00 57.25,19.75 57.00,19.75 57.00,19.50 56.75,19.50 56.75,19.25 54.75,19.25 54.75,19.00 53.50,19.00 53.50,18.75 53.00,18.75 53.00,18.50 52.50,18.50 52.50,18.25 50.75,18.25 50.75,18.50 50.00,18.50 50.00,18.25ZM102.00,18.25 102.00,18.50 101.00,18.50 101.00,18.75 100.75,18.75 100.75,19.00 100.00,19.00 100.00,19.25 98.25,19.25 98.25,19.00 98.00,19.00 98.00,19.25 96.50,19.25 96.50,19.50 96.00,19.50 96.00,20.00 95.75,20.00 95.75,20.25 93.50,20.25 93.50,20.50 93.25,20.50 93.25,20.75 92.75,20.75 92.75,21.00 92.50,21.00 92.50,21.25 91.75,21.25 91.75,21.50 91.25,21.50 91.25,21.75 91.00,21.75 91.00,22.00 90.50,22.00 90.50,22.25 90.25,22.25 90.25,22.50 89.75,22.50 89.75,22.75 89.00,22.75 89.00,23.00 88.75,23.00 88.75,23.25 88.25,23.25 88.25,23.50 87.75,23.50 87.75,23.75 86.75,23.75 86.75,24.00 86.00,24.00 86.00,24.25 85.75,24.25 85.75,24.50 85.25,24.50 85.25,24.75 84.75,24.75 84.75,25.00 84.25,25.00 84.25,25.25 83.75,25.25 83.75,25.50 83.50,25.50 83.50,25.75 83.25,25.75 83.25,26.00 82.75,26.00 82.75,26.25 82.50,26.25 82.50,26.50 82.25,26.50 82.25,26.75 81.75,26.75 81.75,27.00 81.50,27.00 81.50,27.25 81.25,27.25 81.25,27.50 81.00,27.50 81.00,27.75 80.75,27.75 80.75,28.00 80.00,28.00 80.00,28.25 79.50,28.25 79.50,28.50 79.25,28.50 79.25,28.75 78.75,28.75 78.75,29.00 78.50,29.00 78.50,29.25 78.25,29.25 78.25,29.75 78.00,29.75 78.00,30.00 77.75,30.00 77.75,30.25 77.50,30.25 77.50,30.50 77.25,30.50 77.25,30.75 77.00,30.75 77.00,31.00 76.75,31.00 76.75,31.25 76.50,31.25 76.50,31.50 76.25,31.50 76.25,31.75 76.00,31.75 76.00,32.00 75.75,32.00 75.75,32.25 75.50,32.25 75.50,32.50 75.25,32.50 75.25,32.75 75.00,32.75 75.00,33.25 74.75,33.25 74.75,33.50 74.50,33.50 74.50,33.75 74.25,33.75 74.25,34.00 73.75,34.00 73.75,34.25 73.50,34.25 73.50,35.50 73.25,35.50 73.25,35.75 73.00,35.75 73.00,36.00 72.75,36.00 72.75,36.25 72.50,36.25 72.50,36.75 72.25,36.75 72.25,37.00 72.00,37.00 72.00,37.25 71.75,37.25 71.75,37.50 71.50,37.50 71.50,37.75 71.00,37.75 71.00,38.00 70.75,38.00 70.75,38.25 70.50,38.25 70.50,39.00 70.75,39.00 70.75,39.25 70.50,39.25 70.50,39.75 70.00,39.75 70.00,40.00 69.75,40.00 69.75,40.25 69.50,40.25 69.50,41.50 69.25,41.50 69.25,41.75 68.75,41.75 68.75,42.25 68.50,42.25 68.50,43.50 68.25,43.50 68.25,43.75 68.00,43.75 68.00,44.00 67.75,44.00 67.75,44.75 67.50,44.75 67.50,45.50 67.25,45.50 67.25,45.75 67.00,45.75 67.00,46.00 66.75,46.00 66.75,46.25 66.50,46.25 66.50,47.75 66.00,47.75 66.00,48.00 65.75,48.00 65.75,48.50 65.50,48.50 65.50,50.50 65.75,50.50 65.75,51.00 65.50,51.00 65.50,51.50 65.25,51.50 65.25,51.75 65.00,51.75 65.00,52.00 64.75,52.00 64.75,54.50 64.50,54.50 64.50,55.75 64.75,55.75 64.75,57.50 64.50,57.50 64.50,59.50 64.75,59.50 64.75,60.75 65.00,60.75 65.00,61.00 65.25,61.00 65.25,61.50 65.50,61.50 65.50,61.75 65.75,61.75 65.75,62.75 66.00,62.75 66.00,63.00 66.25,63.00 66.25,63.25 66.50,63.25 66.50,63.75 66.75,63.75 66.75,64.50 67.00,64.50 67.00,64.75 67.25,64.75 67.25,65.00 67.50,65.00 67.50,65.25 67.75,65.25 67.75,65.50 68.00,65.50 68.00,65.75 68.25,65.75 68.25,66.00 68.50,66.00 68.50,66.25 68.75,66.25 68.75,66.50 69.00,66.50 69.00,67.00 69.25,67.00 69.25,67.25 69.75,67.25 69.75,67.50 70.00,67.50 70.00,67.75 70.50,67.75 70.50,68.00 71.50,68.00 71.50,68.25 72.00,68.25 72.00,68.50 72.25,68.50 72.25,68.75 72.75,68.75 72.75,69.00 73.50,69.00 73.50,69.25 74.00,69.25 74.00,69.50 74.50,69.50 74.50,69.75 75.25,69.75 75.25,69.50 76.75,69.50 76.75,69.75 77.50,69.75 77.50,70.00 78.00,70.00 78.00,69.75 78.75,69.75 78.75,70.00 79.50,70.00 79.50,70.25 79.75,70.25 79.75,70.50 80.50,70.50 80.50,70.75 89.50,70.75 89.50,70.50 90.50,70.50 90.50,70.25 91.25,70.25 91.25,70.00 92.00,70.00 92.00,69.75 96.75,69.75 96.75,69.50 97.25,69.50 97.25,69.25 97.50,69.25 97.50,69.00 97.75,69.00 97.75,68.75 100.00,68.75 100.00,68.50 100.25,68.50 100.25,68.25 100.75,68.25 100.75,68.00 101.00,68.00 101.00,67.75 103.00,67.75 103.00,67.50 103.25,67.50 103.25,67.25 103.75,67.25 103.75,67.00 104.00,67.00 104.00,66.75 104.75,66.75 104.75,66.50 105.25,66.50 105.25,66.25 105.75,66.25 105.75,66.00 106.50,66.00 106.50,65.75 106.75,65.75 106.75,65.50 107.00,65.50 107.00,65.25 107.25,65.25 107.25,65.00 107.75,65.00 107.75,64.75 108.75,64.75 108.75,64.50 109.00,64.50 109.00,64.25 109.50,64.25 109.50,64.00 109.75,64.00 109.75,63.75 110.00,63.75 110.00,63.50 110.25,63.50 110.25,63.25 110.75,63.25 110.75,63.00 111.75,63.00 111.75,62.75 112.00,62.75 112.00,62.50 112.25,62.50 112.25,62.00 112.50,62.00 112.50,61.75 112.75,61.75 112.75,61.50 113.25,61.50 113.25,61.25 113.50,61.25 113.50,61.00 113.75,61.00 113.75,60.75 114.00,60.75 114.00,60.50 114.25,60.50 114.25,60.25 114.50,60.25 114.50,60.00 114.75,60.00 114.75,59.75 115.00,59.75 115.00,59.50 115.25,59.50 115.25,59.25 115.50,59.25 115.50,59.00 116.75,59.00 116.75,58.75 117.00,58.75 117.00,58.50 117.25,58.50 117.25,58.00 117.50,58.00 117.50,57.75 117.75,57.75 117.75,57.50 118.25,57.50 118.25,57.25 118.50,57.25 118.50,57.00 118.75,57.00 118.75,55.75 117.25,55.75 117.25,55.50 115.50,55.50 115.50,55.25 115.25,55.25 115.25,55.00 115.00,55.00 115.00,54.75 114.75,54.75 114.75,54.50 110.50,54.50 110.50,54.75 109.75,54.75 109.75,54.50 106.00,54.50 106.00,54.25 105.50,54.25 105.50,54.00 105.25,54.00 105.25,53.75 105.00,53.75 105.00,53.50 103.75,53.50 103.75,53.75 102.75,53.75 102.75,53.50 102.00,53.50 102.00,53.75 100.25,53.75 100.25,54.00 100.00,54.00 100.00,54.25 99.75,54.25 99.75,54.50 99.50,54.50 99.50,54.75 99.25,54.75 99.25,55.00 99.00,55.00 99.00,55.25 98.50,55.25 98.50,55.50 97.50,55.50 97.50,55.75 97.00,55.75 97.00,56.00 96.75,56.00 96.75,56.25 96.50,56.25 96.50,56.50 95.50,56.50 95.50,56.75 95.00,56.75 95.00,57.00 94.75,57.00 94.75,57.25 94.25,57.25 94.25,57.50 91.50,57.50 91.50,57.75 91.00,57.75 91.00,58.00 90.75,58.00 90.75,58.25 89.25,58.25 89.25,58.00 88.75,58.00 88.75,57.75 88.25,57.75 88.25,57.50 87.50,57.50 87.50,57.25 87.00,57.25 87.00,57.00 86.75,57.00 86.75,56.75 86.25,56.75 86.25,56.50 86.00,56.50 86.00,56.25 85.75,56.25 85.75,56.00 85.50,56.00 85.50,55.75 85.25,55.75 85.25,55.50 85.00,55.50 85.00,53.75 84.75,53.75 84.75,52.75 85.00,52.75 85.00,52.25 85.25,52.25 85.25,52.00 85.50,52.00 85.50,51.75 85.75,51.75 85.75,51.00 86.00,51.00 86.00,50.50 86.25,50.50 86.25,50.25 122.25,50.25 122.25,50.00 122.75,50.00 122.75,49.75 123.00,49.75 123.00,49.50 123.25,49.50 123.25,49.25 123.75,49.25 123.75,49.00 124.00,49.00 124.00,48.75 124.25,48.75 124.25,48.00 124.00,48.00 124.00,47.50 124.25,47.50 124.25,47.25 124.50,47.25 124.50,47.00 125.00,47.00 125.00,46.50 125.25,46.50 125.25,45.25 125.50,45.25 125.50,45.00 125.75,45.00 125.75,44.75 126.00,44.75 126.00,44.50 126.25,44.50 126.25,43.50 126.00,43.50 126.00,43.00 126.25,43.00 126.25,42.50 126.50,42.50 126.50,42.25 126.75,42.25 126.75,42.00 127.00,42.00 127.00,41.25 127.25,41.25 127.25,39.50 127.50,39.50 127.50,39.25 127.75,39.25 127.75,39.00 128.00,39.00 128.00,36.50 128.25,36.50 128.25,35.75 128.50,35.75 128.50,35.25 128.75,35.25 128.75,34.75 129.00,34.75 129.00,30.00 128.75,30.00 128.75,29.25 128.50,29.25 128.50,29.00 128.25,29.00 128.25,28.25 128.00,28.25 128.00,26.50 127.75,26.50 127.75,26.00 127.50,26.00 127.50,25.75 127.25,25.75 127.25,25.25 127.00,25.25 127.00,24.50 126.75,24.50 126.75,24.00 126.25,24.00 126.25,23.75 125.75,23.75 125.75,23.50 125.50,23.50 125.50,23.25 125.25,23.25 125.25,23.00 125.00,23.00 125.00,22.50 124.75,22.50 124.75,22.25 124.50,22.25 124.50,22.00 124.25,22.00 124.25,21.75 124.00,21.75 124.00,21.50 123.50,21.50 123.50,21.25 122.75,21.25 122.75,21.00 122.25,21.00 122.25,20.75 122.00,20.75 122.00,20.50 121.75,20.50 121.75,20.25 120.50,20.25 120.50,20.00 120.25,20.00 120.25,19.75 119.75,19.75 119.75,19.50 119.50,19.50 119.50,19.25 116.50,19.25 116.50,19.00 116.25,19.00 116.25,18.75 116.00,18.75 116.00,18.50 115.50,18.50 115.50,18.25 104.00,18.25 104.00,18.50 102.75,18.50 102.75,18.25ZM227.25,18.25 227.25,18.50 227.00,18.50 227.00,18.75 226.75,18.75 226.75,19.00 226.25,19.00 226.25,19.25 225.75,19.25 225.75,19.00 225.00,19.00 225.00,19.25 224.00,19.25 224.00,19.00 223.75,19.00 223.75,19.25 223.25,19.25 223.25,19.50 223.00,19.50 223.00,19.75 222.75,19.75 222.75,20.00 222.50,20.00 222.50,20.25 219.25,20.25 219.25,20.50 219.00,20.50 219.00,20.75 218.75,20.75 218.75,21.00 218.50,21.00 218.50,21.25 217.50,21.25 217.50,21.50 217.00,21.50 217.00,21.75 216.75,21.75 216.75,22.00 216.25,22.00 216.25,22.25 215.50,22.25 215.50,22.50 215.00,22.50 215.00,22.75 214.75,22.75 214.75,23.00 214.50,23.00 214.50,23.25 214.00,23.25 214.00,23.50 213.25,23.50 213.25,23.75 212.75,23.75 212.75,24.00 212.00,24.00 212.00,24.25 211.25,24.25 211.25,24.50 211.00,24.50 211.00,24.75 210.75,24.75 210.75,25.00 210.25,25.00 210.25,25.25 210.00,25.25 210.00,25.50 209.50,25.50 209.50,25.75 209.00,25.75 209.00,26.00 208.50,26.00 208.50,26.25 208.25,26.25 208.25,26.50 208.00,26.50 208.00,27.00 207.75,27.00 207.75,27.25 207.50,27.25 207.50,27.50 207.25,27.50 207.25,27.75 207.00,27.75 207.00,28.00 206.50,28.00 206.50,28.25 206.25,28.25 206.25,28.50 206.00,28.50 206.00,28.75 205.50,28.75 205.50,29.00 204.75,29.00 204.75,29.25 204.25,29.25 204.25,29.50 204.00,29.50 204.00,29.75 203.75,29.75 203.75,30.00 203.25,30.00 203.25,30.25 203.00,30.25 203.00,30.50 202.75,30.50 202.75,30.75 202.50,30.75 202.50,31.25 202.25,31.25 202.25,31.50 202.00,31.50 202.00,31.75 201.75,31.75 201.75,32.00 201.25,32.00 201.25,32.50 201.00,32.50 201.00,32.75 200.75,32.75 200.75,33.00 200.50,33.00 200.50,33.25 200.25,33.25 200.25,33.50 200.00,33.50 200.00,33.75 199.75,33.75 199.75,34.00 199.50,34.00 199.50,34.50 199.25,34.50 199.25,35.25 199.00,35.25 199.00,35.75 198.75,35.75 198.75,36.00 198.50,36.00 198.50,36.25 198.25,36.25 198.25,36.50 198.00,36.50 198.00,36.75 197.75,36.75 197.75,37.00 197.50,37.00 197.50,37.25 197.25,37.25 197.25,37.50 197.00,37.50 197.00,37.75 196.75,37.75 196.75,38.00 196.50,38.00 196.50,38.25 196.25,38.25 196.25,39.50 196.00,39.50 196.00,39.75 195.75,39.75 195.75,40.00 195.50,40.00 195.50,40.25 195.25,40.25 195.25,40.50 195.00,40.50 195.00,40.75 194.75,40.75 194.75,41.00 194.50,41.00 194.50,41.50 194.25,41.50 194.25,42.50 194.00,42.50 194.00,42.75 193.75,42.75 193.75,43.00 193.50,43.00 193.50,43.25 193.25,43.25 193.25,44.50 193.00,44.50 193.00,44.75 192.75,44.75 192.75,45.00 192.50,45.00 192.50,45.25 192.25,45.25 192.25,46.50 192.50,46.50 192.50,47.25 192.25,47.25 192.25,47.50 192.00,47.50 192.00,47.75 191.75,47.75 191.75,48.00 191.50,48.00 191.50,48.50 191.25,48.50 191.25,50.25 191.00,50.25 191.00,50.50 190.75,50.50 190.75,51.00 190.50,51.00 190.50,51.75 190.25,51.75 190.25,56.50 190.50,56.50 190.50,57.25 190.25,57.25 190.25,57.75 190.50,57.75 190.50,59.25 190.75,59.25 190.75,59.75 191.00,59.75 191.00,60.25 191.25,60.25 191.25,60.75 191.50,60.75 191.50,61.25 191.75,61.25 191.75,62.00 192.00,62.00 192.00,62.75 192.25,62.75 192.25,63.25 192.50,63.25 192.50,63.75 192.75,63.75 192.75,64.00 193.00,64.00 193.00,64.25 193.25,64.25 193.25,64.50 193.50,64.50 193.50,64.75 193.75,64.75 193.75,65.00 194.00,65.00 194.00,65.25 194.25,65.25 194.25,65.50 194.50,65.50 194.50,65.75 195.00,65.75 195.00,66.00 195.25,66.00 195.25,66.50 195.50,66.50 195.50,66.75 195.75,66.75 195.75,67.00 196.25,67.00 196.25,67.25 196.50,67.25 196.50,67.50 197.00,67.50 197.00,67.75 197.50,67.75 197.50,68.00 198.00,68.00 198.00,68.25 198.75,68.25 198.75,68.50 199.25,68.50 199.25,68.75 199.75,68.75 199.75,69.00 200.00,69.00 200.00,69.25 200.25,69.25 200.25,69.50 200.75,69.50 200.75,69.75 204.25,69.75 204.25,70.00 204.75,70.00 204.75,70.25 205.25,70.25 205.25,70.50 205.75,70.50 205.75,70.75 213.75,70.75 213.75,70.50 214.25,70.50 214.25,70.25 214.50,70.25 214.50,70.00 215.00,70.00 215.00,69.75 216.00,69.75 216.00,70.00 216.75,70.00 216.75,69.75 219.75,69.75 219.75,69.50 220.00,69.50 220.00,69.25 220.25,69.25 220.25,69.00 220.75,69.00 220.75,68.75 222.00,68.75 222.00,69.00 222.75,69.00 222.75,68.75 223.75,68.75 223.75,68.50 224.00,68.50 224.00,68.25 224.25,68.25 224.25,68.00 224.75,68.00 224.75,67.75 225.00,67.75 225.00,68.00 225.75,68.00 225.75,67.75 226.00,67.75 226.00,67.50 226.25,67.50 226.25,67.00 226.75,67.00 226.75,66.75 227.00,66.75 227.00,67.00 228.50,67.00 228.50,66.75 229.00,66.75 229.00,66.25 229.25,66.25 229.25,66.00 229.75,66.00 229.75,65.75 230.75,65.75 230.75,65.50 231.00,65.50 231.00,65.25 231.25,65.25 231.25,65.00 231.50,65.00 231.50,64.75 231.75,64.75 231.75,64.50 232.00,64.50 232.00,64.25 232.50,64.25 232.50,64.00 233.75,64.00 233.75,63.75 234.00,63.75 234.00,63.50 234.25,63.50 234.25,63.25 234.75,63.25 234.75,63.00 235.00,63.00 235.00,62.75 235.25,62.75 235.25,62.50 235.50,62.50 235.50,62.25 235.75,62.25 235.75,62.00 236.50,62.00 236.50,61.75 236.75,61.75 236.75,61.50 237.00,61.50 237.00,61.25 237.25,61.25 237.25,61.00 237.50,61.00 237.50,60.75 237.75,60.75 237.75,60.50 238.00,60.50 238.00,60.25 238.25,60.25 238.25,60.00 238.75,60.00 238.75,59.50 239.00,59.50 239.00,59.25 239.25,59.25 239.25,59.00 239.50,59.00 239.50,58.75 239.75,58.75 239.75,58.50 240.00,58.50 240.00,58.25 240.25,58.25 240.25,58.00 240.50,58.00 240.50,57.75 240.75,57.75 240.75,57.50 241.00,57.50 241.00,57.25 241.25,57.25 241.25,57.00 241.50,57.00 241.50,56.75 241.75,56.75 241.75,56.50 242.00,56.50 242.00,56.25 242.25,56.25 242.25,56.00 242.50,56.00 242.50,55.75 242.75,55.75 242.75,55.50 243.00,55.50 243.00,55.25 243.25,55.25 243.25,55.00 243.50,55.00 243.50,54.75 243.75,54.75 243.75,54.50 244.00,54.50 244.00,54.25 244.25,54.25 244.25,54.00 244.50,54.00 244.50,53.75 244.75,53.75 244.75,53.50 245.00,53.50 245.00,53.25 245.50,53.25 245.50,53.00 245.75,53.00 245.75,52.50 246.00,52.50 246.00,52.25 246.25,52.25 246.25,51.75 246.50,51.75 246.50,51.50 246.75,51.50 246.75,51.25 247.00,51.25 247.00,50.75 247.25,50.75 247.25,50.00 247.50,50.00 247.50,49.75 247.75,49.75 247.75,49.50 248.00,49.50 248.00,49.25 248.25,49.25 248.25,49.00 248.50,49.00 248.50,48.75 248.75,48.75 248.75,48.50 249.00,48.50 249.00,47.50 249.25,47.50 249.25,47.25 249.50,47.25 249.50,47.00 249.75,47.00 249.75,46.75 250.00,46.75 250.00,45.50 250.25,45.50 250.25,45.25 250.50,45.25 250.50,45.00 250.75,45.00 250.75,44.75 251.00,44.75 251.00,43.25 251.25,43.25 251.25,43.00 251.50,43.00 251.50,42.75 251.75,42.75 251.75,42.25 252.00,42.25 252.00,41.50 252.25,41.50 252.25,41.25 252.50,41.25 252.50,41.00 252.75,41.00 252.75,40.50 253.00,40.50 253.00,37.75 253.25,37.75 253.25,37.25 253.50,37.25 253.50,36.75 253.75,36.75 253.75,32.50 254.00,32.50 254.00,32.25 253.75,32.25 253.75,29.75 253.50,29.75 253.50,29.25 253.25,29.25 253.25,28.75 253.00,28.75 253.00,27.25 252.75,27.25 252.75,26.75 252.50,26.75 252.50,26.25 252.25,26.25 252.25,26.00 252.00,26.00 252.00,25.75 251.75,25.75 251.75,25.50 251.50,25.50 251.50,25.25 251.25,25.25 251.25,24.75 251.00,24.75 251.00,23.75 250.75,23.75 250.75,23.25 250.25,23.25 250.25,23.00 250.00,23.00 250.00,22.75 249.75,22.75 249.75,22.50 249.25,22.50 249.25,22.25 248.50,22.25 248.50,22.00 248.25,22.00 248.25,21.75 247.75,21.75 247.75,21.50 247.50,21.50 247.50,21.25 247.25,21.25 247.25,21.00 247.00,21.00 247.00,20.75 246.75,20.75 246.75,20.50 246.25,20.50 246.25,20.25 244.50,20.25 244.50,20.00 244.25,20.00 244.25,19.75 243.75,19.75 243.75,19.50 243.25,19.50 243.25,19.25 241.25,19.25 241.25,19.00 240.75,19.00 240.75,18.75 240.25,18.75 240.25,18.50 239.50,18.50 239.50,18.25 230.75,18.25 230.75,18.50 230.00,18.50 230.00,18.25ZM285.75,18.25 285.75,18.50 285.25,18.50 285.25,18.75 284.75,18.75 284.75,19.00 283.00,19.00 283.00,19.25 282.00,19.25 282.00,19.00 281.50,19.00 281.50,19.25 280.75,19.25 280.75,19.50 280.25,19.50 280.25,19.75 280.00,19.75 280.00,20.00 279.75,20.00 279.75,20.25 278.75,20.25 278.75,20.00 277.75,20.00 277.75,20.25 277.50,20.25 277.50,20.50 277.25,20.50 277.25,20.75 277.00,20.75 277.00,21.00 276.75,21.00 276.75,21.25 275.25,21.25 275.25,21.50 275.00,21.50 275.00,21.75 274.75,21.75 274.75,22.00 274.00,22.00 274.00,22.25 273.75,22.25 273.75,22.00 273.50,22.00 273.50,22.25 273.00,22.25 273.00,22.50 272.75,22.50 272.75,22.75 272.50,22.75 272.50,23.00 272.25,23.00 272.25,23.25 272.00,23.25 272.00,23.50 271.25,23.50 271.25,23.75 270.75,23.75 270.75,24.00 270.50,24.00 270.50,24.25 270.25,24.25 270.25,24.50 270.00,24.50 270.00,24.75 269.75,24.75 269.75,25.00 269.50,25.00 269.50,25.25 269.00,25.25 269.00,25.50 268.75,25.50 268.75,25.75 268.50,25.75 268.50,26.00 268.00,26.00 268.00,26.25 267.25,26.25 267.25,26.50 267.00,26.50 267.00,26.75 266.75,26.75 266.75,27.00 266.50,27.00 266.50,27.25 266.25,27.25 266.25,27.50 266.00,27.50 266.00,27.75 265.75,27.75 265.75,28.00 265.50,28.00 265.50,28.25 265.25,28.25 265.25,29.00 265.00,29.00 265.00,30.00 264.75,30.00 264.75,30.25 264.25,30.25 264.25,30.50 264.00,30.50 264.00,30.75 263.75,30.75 263.75,31.00 263.50,31.00 263.50,31.50 263.25,31.50 263.25,32.25 263.00,32.25 263.00,32.75 262.75,32.75 262.75,33.00 262.50,33.00 262.50,33.25 262.25,33.25 262.25,34.00 262.00,34.00 262.00,34.75 261.75,34.75 261.75,35.00 261.50,35.00 261.50,35.25 261.25,35.25 261.25,36.00 261.00,36.00 261.00,37.50 260.75,37.50 260.75,38.00 260.50,38.00 260.50,38.25 260.25,38.25 260.25,38.75 260.00,38.75 260.00,40.75 260.25,40.75 260.25,41.25 260.50,41.25 260.50,41.50 260.75,41.50 260.75,41.75 261.00,41.75 261.00,43.50 261.25,43.50 261.25,44.00 261.50,44.00 261.50,44.25 262.00,44.25 262.00,44.50 262.25,44.50 262.25,44.75 262.50,44.75 262.50,45.25 262.75,45.25 262.75,45.50 263.00,45.50 263.00,45.75 263.25,45.75 263.25,46.00 263.50,46.00 263.50,46.25 263.75,46.25 263.75,46.75 264.00,46.75 264.00,47.00 264.50,47.00 264.50,47.25 265.25,47.25 265.25,47.50 265.50,47.50 265.50,47.75 266.00,47.75 266.00,48.00 266.75,48.00 266.75,48.25 267.75,48.25 267.75,48.50 268.00,48.50 268.00,48.75 268.50,48.75 268.50,49.00 269.25,49.00 269.25,49.25 271.00,49.25 271.00,49.00 271.25,49.00 271.25,49.25 271.75,49.25 271.75,49.50 272.00,49.50 272.00,49.75 272.25,49.75 272.25,50.00 272.75,50.00 272.75,50.25 276.50,50.25 276.50,50.50 276.75,50.50 276.75,50.75 277.25,50.75 277.25,51.00 278.25,51.00 278.25,51.25 281.50,51.25 281.50,51.50 281.75,51.50 281.75,51.75 282.00,51.75 282.00,52.00 282.75,52.00 282.75,52.25 284.50,52.25 284.50,52.75 284.75,52.75 284.75,54.50 284.50,54.50 284.50,55.50 284.25,55.50 284.25,55.75 284.00,55.75 284.00,56.00 283.75,56.00 283.75,56.25 283.50,56.25 283.50,56.50 283.25,56.50 283.25,56.75 283.00,56.75 283.00,57.00 282.75,57.00 282.75,57.25 282.50,57.25 282.50,57.50 281.75,57.50 281.75,57.75 281.00,57.75 281.00,58.00 280.75,58.00 280.75,58.25 280.50,58.25 280.50,58.50 274.00,58.50 274.00,58.25 273.75,58.25 273.75,58.50 272.50,58.50 272.50,58.25 272.25,58.25 272.25,57.75 272.00,57.75 272.00,57.25 271.75,57.25 271.75,57.00 271.50,57.00 271.50,56.50 271.25,56.50 271.25,56.25 271.00,56.25 271.00,55.75 270.75,55.75 270.75,55.00 270.50,55.00 270.50,53.50 270.25,53.50 270.25,53.00 270.00,53.00 270.00,52.75 266.25,52.75 266.25,53.00 266.00,53.00 266.00,53.25 265.50,53.25 265.50,53.50 258.75,53.50 258.75,53.75 255.50,53.75 255.50,54.00 255.25,54.00 255.25,54.25 254.25,54.25 254.25,54.50 251.00,54.50 251.00,54.75 250.75,54.75 250.75,55.00 250.50,55.00 250.50,55.25 250.25,55.25 250.25,55.50 250.00,55.50 250.00,55.75 249.75,55.75 249.75,56.00 249.50,56.00 249.50,56.25 249.25,56.25 249.25,61.50 249.50,61.50 249.50,62.25 249.75,62.25 249.75,62.75 250.00,62.75 250.00,63.00 250.25,63.00 250.25,64.25 250.50,64.25 250.50,64.75 250.75,64.75 250.75,65.00 251.25,65.00 251.25,65.25 251.50,65.25 251.50,65.50 251.75,65.50 251.75,65.75 252.00,65.75 252.00,66.25 252.25,66.25 252.25,66.50 252.50,66.50 252.50,66.75 252.75,66.75 252.75,67.00 253.00,67.00 253.00,67.25 253.25,67.25 253.25,67.50 253.75,67.50 253.75,67.75 254.50,67.75 254.50,68.00 255.25,68.00 255.25,68.25 255.75,68.25 255.75,68.50 256.00,68.50 256.00,68.75 256.50,68.75 256.50,69.00 257.00,69.00 257.00,69.25 257.50,69.25 257.50,69.50 258.00,69.50 258.00,69.75 260.00,69.75 260.00,69.50 261.00,69.50 261.00,69.75 262.25,69.75 262.25,70.00 263.25,70.00 263.25,70.25 264.00,70.25 264.00,70.50 267.00,70.50 267.00,70.75 275.00,70.75 275.00,71.00 275.50,71.00 275.50,70.75 276.00,70.75 276.00,70.25 276.50,70.25 276.50,70.00 278.25,70.00 278.25,69.75 281.50,69.75 281.50,69.50 282.00,69.50 282.00,69.25 282.25,69.25 282.25,68.75 282.75,68.75 282.75,68.50 283.25,68.50 283.25,68.75 285.75,68.75 285.75,68.50 286.00,68.50 286.00,68.25 286.25,68.25 286.25,68.00 286.50,68.00 286.50,67.75 287.50,67.75 287.50,68.00 288.00,68.00 288.00,67.75 288.75,67.75 288.75,67.50 289.00,67.50 289.00,67.25 289.25,67.25 289.25,67.00 289.75,67.00 289.75,66.75 290.75,66.75 290.75,66.50 291.00,66.50 291.00,66.25 291.25,66.25 291.25,66.00 291.50,66.00 291.50,65.75 292.50,65.75 292.50,65.50 293.00,65.50 293.00,65.25 293.25,65.25 293.25,64.75 293.50,64.75 293.50,64.50 294.00,64.50 294.00,64.25 294.75,64.25 294.75,64.00 295.50,64.00 295.50,63.75 295.75,63.75 295.75,63.50 296.00,63.50 296.00,63.25 296.25,63.25 296.25,63.00 296.50,63.00 296.50,62.75 296.75,62.75 296.75,62.50 297.00,62.50 297.00,62.25 297.25,62.25 297.25,62.00 297.50,62.00 297.50,61.75 297.75,61.75 297.75,61.50 298.00,61.50 298.00,61.25 298.25,61.25 298.25,61.00 298.50,61.00 298.50,60.75 298.75,60.75 298.75,60.50 299.00,60.50 299.00,60.00 299.25,60.00 299.25,59.75 299.50,59.75 299.50,59.50 299.75,59.50 299.75,59.25 300.00,59.25 300.00,59.00 300.25,59.00 300.25,58.75 300.75,58.75 300.75,58.50 301.00,58.50 301.00,58.25 301.25,58.25 301.25,58.00 301.50,58.00 301.50,57.75 301.75,57.75 301.75,57.25 302.00,57.25 302.00,56.25 302.25,56.25 302.25,56.00 302.75,56.00 302.75,55.75 303.00,55.75 303.00,55.25 303.25,55.25 303.25,55.00 303.50,55.00 303.50,54.75 303.75,54.75 303.75,54.50 304.00,54.50 304.00,53.50 304.25,53.50 304.25,53.00 304.50,53.00 304.50,52.75 304.75,52.75 304.75,51.75 305.00,51.75 305.00,51.25 305.25,51.25 305.25,51.00 305.50,51.00 305.50,50.75 305.75,50.75 305.75,49.00 306.00,49.00 306.00,45.50 305.75,45.50 305.75,45.00 305.50,45.00 305.50,44.75 305.25,44.75 305.25,44.50 305.00,44.50 305.00,42.25 304.50,42.25 304.50,42.00 304.25,42.00 304.25,41.75 304.00,41.75 304.00,41.25 303.75,41.25 303.75,41.00 303.50,41.00 303.50,40.75 303.25,40.75 303.25,40.50 303.00,40.50 303.00,40.25 302.75,40.25 302.75,40.00 302.00,40.00 302.00,39.75 301.25,39.75 301.25,39.50 300.75,39.50 300.75,39.25 300.50,39.25 300.50,39.00 299.75,39.00 299.75,38.75 299.25,38.75 299.25,38.50 299.00,38.50 299.00,38.25 298.50,38.25 298.50,38.00 297.50,38.00 297.50,37.75 295.25,37.75 295.25,37.50 295.00,37.50 295.00,37.25 294.75,37.25 294.75,37.00 294.50,37.00 294.50,36.75 289.25,36.75 289.25,36.50 289.00,36.50 289.00,36.25 288.75,36.25 288.75,36.00 285.75,36.00 285.75,35.75 283.50,35.75 283.50,35.50 283.25,35.50 283.25,35.25 283.00,35.25 283.00,35.00 282.75,35.00 282.75,34.75 282.25,34.75 282.25,34.50 281.00,34.50 281.00,34.75 280.75,34.75 280.75,34.50 280.50,34.50 280.50,33.75 280.75,33.75 280.75,33.50 281.00,33.50 281.00,33.25 281.25,33.25 281.25,32.75 281.50,32.75 281.50,31.50 281.75,31.50 281.75,31.25 282.25,31.25 282.25,31.00 282.50,31.00 282.50,30.75 283.50,30.75 283.50,30.50 284.00,30.50 284.00,30.00 284.25,30.00 284.25,29.75 284.50,29.75 284.50,29.50 285.75,29.50 285.75,29.75 287.00,29.75 287.00,29.50 288.75,29.50 288.75,29.75 290.00,29.75 290.00,30.00 290.50,30.00 290.50,30.25 290.75,30.25 290.75,30.75 291.00,30.75 291.00,31.00 291.25,31.00 291.25,31.25 291.50,31.25 291.50,31.00 292.50,31.00 292.50,32.00 292.75,32.00 292.75,32.50 292.50,32.50 292.50,33.75 292.75,33.75 292.75,34.25 293.25,34.25 293.25,34.50 294.00,34.50 294.00,34.25 295.00,34.25 295.00,34.50 298.00,34.50 298.00,34.25 298.75,34.25 298.75,34.00 299.00,34.00 299.00,33.75 299.25,33.75 299.25,33.50 301.75,33.50 301.75,33.75 302.50,33.75 302.50,33.50 308.50,33.50 308.50,33.25 309.25,33.25 309.25,33.00 309.75,33.00 309.75,32.75 310.25,32.75 310.25,32.50 311.75,32.50 311.75,32.25 312.25,32.25 312.25,32.00 312.50,32.00 312.50,31.75 312.75,31.75 312.75,27.50 312.50,27.50 312.50,26.50 312.25,26.50 312.25,26.00 312.00,26.00 312.00,25.25 311.75,25.25 311.75,25.00 311.50,25.00 311.50,24.50 311.25,24.50 311.25,24.00 311.00,24.00 311.00,23.75 310.75,23.75 310.75,23.25 310.50,23.25 310.50,22.50 310.25,22.50 310.25,22.25 310.00,22.25 310.00,22.00 309.75,22.00 309.75,21.50 309.50,21.50 309.50,21.25 309.25,21.25 309.25,21.00 308.75,21.00 308.75,20.75 308.50,20.75 308.50,20.50 308.00,20.50 308.00,20.25 307.50,20.25 307.50,20.00 307.00,20.00 307.00,19.75 306.50,19.75 306.50,19.50 306.25,19.50 306.25,19.25 305.50,19.25 305.50,19.00 304.75,19.00 304.75,19.25 303.50,19.25 303.50,19.00 303.00,19.00 303.00,18.75 302.50,18.75 302.50,18.50 302.00,18.50 302.00,18.25ZM347.00,18.25 347.00,18.50 346.75,18.50 346.75,18.75 346.50,18.75 346.50,19.00 346.00,19.00 346.00,19.25 345.00,19.25 345.00,19.00 344.25,19.00 344.25,19.25 342.25,19.25 342.25,19.50 342.00,19.50 342.00,19.75 341.75,19.75 341.75,20.00 341.50,20.00 341.50,20.25 339.25,20.25 339.25,20.50 339.00,20.50 339.00,20.75 338.75,20.75 338.75,21.25 337.75,21.25 337.75,21.00 337.25,21.00 337.25,21.25 337.00,21.25 337.00,21.50 336.75,21.50 336.75,21.75 336.50,21.75 336.50,22.00 336.25,22.00 336.25,22.25 335.25,22.25 335.25,22.50 335.00,22.50 335.00,22.75 334.75,22.75 334.75,23.00 334.50,23.00 334.50,23.25 333.25,23.25 333.25,23.50 333.00,23.50 333.00,23.75 332.75,23.75 332.75,24.00 332.50,24.00 332.50,24.25 331.25,24.25 331.25,24.50 331.00,24.50 331.00,24.75 330.75,24.75 330.75,25.00 330.50,25.00 330.50,25.25 330.25,25.25 330.25,25.50 330.00,25.50 330.00,25.75 329.50,25.75 329.50,26.00 329.00,26.00 329.00,26.25 328.25,26.25 328.25,26.50 328.00,26.50 328.00,26.75 327.75,26.75 327.75,27.00 327.50,27.00 327.50,27.25 327.25,27.25 327.25,27.50 327.00,27.50 327.00,27.75 326.50,27.75 326.50,28.00 326.25,28.00 326.25,28.25 326.00,28.25 326.00,28.50 325.75,28.50 325.75,28.75 325.25,28.75 325.25,29.00 324.75,29.00 324.75,29.25 324.25,29.25 324.25,29.50 324.00,29.50 324.00,29.75 323.75,29.75 323.75,30.00 323.50,30.00 323.50,30.25 323.25,30.25 323.25,30.50 323.00,30.50 323.00,30.75 322.75,30.75 322.75,31.00 322.50,31.00 322.50,31.25 322.25,31.25 322.25,31.50 322.00,31.50 322.00,31.75 321.50,31.75 321.50,32.00 321.25,32.00 321.25,32.25 321.00,32.25 321.00,32.75 320.75,32.75 320.75,33.00 320.50,33.00 320.50,33.25 320.25,33.25 320.25,33.50 320.00,33.50 320.00,34.25 319.75,34.25 319.75,35.00 319.50,35.00 319.50,35.25 319.25,35.25 319.25,35.50 319.00,35.50 319.00,35.75 318.75,35.75 318.75,36.00 318.50,36.00 318.50,36.25 318.25,36.25 318.25,36.50 318.00,36.50 318.00,36.75 317.50,36.75 317.50,37.25 317.25,37.25 317.25,38.00 317.00,38.00 317.00,38.75 316.75,38.75 316.75,39.00 316.50,39.00 316.50,39.25 316.25,39.25 316.25,39.50 316.00,39.50 316.00,39.75 315.75,39.75 315.75,40.00 315.50,40.00 315.50,40.25 315.25,40.25 315.25,41.25 315.00,41.25 315.00,41.75 314.75,41.75 314.75,42.00 314.50,42.00 314.50,42.25 314.25,42.25 314.25,43.25 314.00,43.25 314.00,43.75 313.50,43.75 313.50,44.00 313.25,44.00 313.25,44.25 313.00,44.25 313.00,45.75 312.75,45.75 312.75,46.00 312.50,46.00 312.50,46.25 312.25,46.25 312.25,48.00 312.00,48.00 312.00,48.50 311.75,48.50 311.75,48.75 311.50,48.75 311.50,49.00 311.25,49.00 311.25,49.75 311.00,49.75 311.00,50.25 311.25,50.25 311.25,51.50 311.00,51.50 311.00,51.75 310.75,51.75 310.75,52.00 310.50,52.00 310.50,52.25 310.25,52.25 310.25,59.25 310.50,59.25 310.50,59.75 310.75,59.75 310.75,60.00 311.00,60.00 311.00,61.00 311.25,61.00 311.25,61.50 311.00,61.50 311.00,62.00 311.25,62.00 311.25,62.75 311.50,62.75 311.50,63.00 311.75,63.00 311.75,63.25 312.00,63.25 312.00,64.00 312.25,64.00 312.25,64.50 312.50,64.50 312.50,64.75 312.75,64.75 312.75,65.00 313.00,65.00 313.00,65.25 313.25,65.25 313.25,65.50 313.50,65.50 313.50,65.75 313.75,65.75 313.75,66.00 314.00,66.00 314.00,66.25 314.25,66.25 314.25,66.50 314.75,66.50 314.75,66.75 315.25,66.75 315.25,67.00 316.00,67.00 316.00,67.25 316.25,67.25 316.25,67.50 316.50,67.50 316.50,67.75 316.75,67.75 316.75,68.00 317.00,68.00 317.00,68.25 317.50,68.25 317.50,68.50 318.25,68.50 318.25,68.75 319.50,68.75 319.50,69.00 320.00,69.00 320.00,69.25 320.50,69.25 320.50,69.50 321.00,69.50 321.00,69.75 322.25,69.75 322.25,69.50 323.00,69.50 323.00,69.75 325.50,69.75 325.50,70.00 325.75,70.00 325.75,70.25 326.25,70.25 326.25,70.50 326.75,70.50 326.75,70.75 328.50,70.75 328.50,70.50 329.25,70.50 329.25,70.75 337.50,70.75 337.50,70.50 338.00,70.50 338.00,70.25 338.25,70.25 338.25,70.00 338.75,70.00 338.75,69.75 342.75,69.75 342.75,69.50 343.00,69.50 343.00,69.25 343.25,69.25 343.25,68.75 346.50,68.75 346.50,68.50 346.75,68.50 346.75,68.25 347.25,68.25 347.25,68.00 347.50,68.00 347.50,67.75 348.50,67.75 348.50,67.50 349.00,67.50 349.00,67.25 349.25,67.25 349.25,67.00 350.00,67.00 350.00,66.75 350.75,66.75 350.75,66.50 351.00,66.50 351.00,66.25 351.25,66.25 351.25,66.00 351.75,66.00 351.75,65.75 352.25,65.75 352.25,65.50 352.75,65.50 352.75,65.25 353.00,65.25 353.00,65.00 353.25,65.00 353.25,64.75 354.00,64.75 354.00,64.50 354.75,64.50 354.75,64.25 355.00,64.25 355.00,64.00 355.50,64.00 355.50,63.75 355.75,63.75 355.75,63.50 356.00,63.50 356.00,63.25 356.50,63.25 356.50,63.00 357.00,63.00 357.00,62.75 357.25,62.75 357.25,62.50 357.75,62.50 357.75,62.25 358.00,62.25 358.00,62.00 358.25,62.00 358.25,61.75 358.75,61.75 358.75,61.50 359.00,61.50 359.00,61.00 359.25,61.00 359.25,60.75 359.75,60.75 359.75,60.50 360.00,60.50 360.00,60.25 360.25,60.25 360.25,60.00 360.50,60.00 360.50,59.75 360.75,59.75 360.75,59.50 361.00,59.50 361.00,59.25 361.75,59.25 361.75,59.00 362.50,59.00 362.50,58.75 363.00,58.75 363.00,58.50 363.25,58.50 363.25,58.25 363.50,58.25 363.50,57.75 363.75,57.75 363.75,56.50 364.00,56.50 364.00,56.25 364.25,56.25 364.25,56.00 364.50,56.00 364.50,55.75 364.75,55.75 364.75,55.25 365.00,55.25 365.00,55.00 365.50,55.00 365.50,54.75 365.75,54.75 365.75,54.25 366.00,54.25 366.00,54.00 366.25,54.00 366.25,53.75 366.50,53.75 366.50,53.50 366.75,53.50 366.75,53.25 367.00,53.25 367.00,53.00 367.50,53.00 367.50,52.50 367.75,52.50 367.75,51.25 367.50,51.25 367.50,51.00 367.25,51.00 367.25,50.75 362.00,50.75 362.00,50.50 361.25,50.50 361.25,50.25 360.75,50.25 360.75,50.00 360.50,50.00 360.50,49.75 357.50,49.75 357.50,49.50 355.00,49.50 355.00,49.75 354.25,49.75 354.25,49.50 353.50,49.50 353.50,49.25 353.25,49.25 353.25,49.00 352.50,49.00 352.50,48.75 350.00,48.75 350.00,49.00 349.75,49.00 349.75,49.25 349.50,49.25 349.50,49.75 349.75,49.75 349.75,50.50 349.50,50.50 349.50,50.75 349.00,50.75 349.00,51.00 348.75,51.00 348.75,51.25 348.50,51.25 348.50,51.50 348.25,51.50 348.25,51.75 348.00,51.75 348.00,52.00 347.75,52.00 347.75,52.50 347.50,52.50 347.50,52.75 347.00,52.75 347.00,53.00 346.75,53.00 346.75,53.25 346.25,53.25 346.25,53.50 345.25,53.50 345.25,53.75 345.00,53.75 345.00,54.00 344.75,54.00 344.75,54.25 344.50,54.25 344.50,54.50 343.25,54.50 343.25,54.75 343.00,54.75 343.00,55.00 342.75,55.00 342.75,55.25 342.50,55.25 342.50,55.50 342.00,55.50 342.00,55.75 340.75,55.75 340.75,56.00 340.50,56.00 340.50,56.25 340.25,56.25 340.25,56.50 339.75,56.50 339.75,56.25 339.25,56.25 339.25,56.50 337.00,56.50 337.00,56.25 336.00,56.25 336.00,56.50 334.50,56.50 334.50,56.25 334.25,56.25 334.25,56.00 334.00,56.00 334.00,55.75 333.75,55.75 333.75,55.50 332.75,55.50 332.75,55.25 332.50,55.25 332.50,54.25 332.25,54.25 332.25,53.75 332.00,53.75 332.00,53.50 331.75,53.50 331.75,53.25 331.50,53.25 331.50,50.25 331.25,50.25 331.25,49.50 331.50,49.50 331.50,49.25 331.75,49.25 331.75,49.00 332.00,49.00 332.00,48.75 332.25,48.75 332.25,48.00 332.50,48.00 332.50,47.25 332.25,47.25 332.25,46.50 332.50,46.50 332.50,46.25 332.75,46.25 332.75,46.00 333.25,46.00 333.25,44.50 333.50,44.50 333.50,44.25 334.00,44.25 334.00,44.00 334.25,44.00 334.25,42.50 334.75,42.50 334.75,42.25 335.00,42.25 335.00,42.00 335.25,42.00 335.25,41.50 335.50,41.50 335.50,41.25 336.00,41.25 336.00,41.00 336.25,41.00 336.25,39.50 336.50,39.50 336.50,39.25 336.75,39.25 336.75,39.00 337.00,39.00 337.00,38.75 337.25,38.75 337.25,38.50 337.50,38.50 337.50,38.25 337.75,38.25 337.75,38.00 338.00,38.00 338.00,37.75 338.25,37.75 338.25,37.50 338.75,37.50 338.75,37.25 339.00,37.25 339.00,37.00 339.25,37.00 339.25,36.50 339.50,36.50 339.50,36.25 340.25,36.25 340.25,35.75 340.50,35.75 340.50,35.50 341.75,35.50 341.75,35.25 342.00,35.25 342.00,35.00 342.25,35.00 342.25,34.50 342.50,34.50 342.50,34.25 343.00,34.25 343.00,34.00 343.25,34.00 343.25,33.50 343.50,33.50 343.50,33.25 344.25,33.25 344.25,33.50 345.75,33.50 345.75,33.25 346.00,33.25 346.00,33.00 346.25,33.00 346.25,32.75 346.50,32.75 346.50,32.50 352.00,32.50 352.00,32.75 352.25,32.75 352.25,33.00 352.75,33.00 352.75,33.25 353.00,33.25 353.00,33.50 353.75,33.50 353.75,33.75 354.25,33.75 354.25,34.00 354.50,34.00 354.50,37.75 354.75,37.75 354.75,38.00 355.00,38.00 355.00,38.25 357.25,38.25 357.25,38.50 358.50,38.50 358.50,38.25 362.50,38.25 362.50,38.00 363.00,38.00 363.00,37.75 363.50,37.75 363.50,37.50 364.25,37.50 364.25,37.25 365.50,37.25 365.50,37.50 368.00,37.50 368.00,37.25 368.75,37.25 368.75,37.50 370.00,37.50 370.00,37.25 370.25,37.25 370.25,37.00 370.75,37.00 370.75,36.75 371.00,36.75 371.00,36.50 373.25,36.50 373.25,36.25 374.00,36.25 374.00,36.00 374.25,36.00 374.25,35.75 374.50,35.75 374.50,33.75 374.75,33.75 374.75,32.75 375.00,32.75 375.00,32.25 374.75,32.25 374.75,31.75 374.50,31.75 374.50,31.00 374.75,31.00 374.75,28.75 374.50,28.75 374.50,28.00 374.25,28.00 374.25,27.25 374.00,27.25 374.00,26.75 373.75,26.75 373.75,26.50 373.50,26.50 373.50,26.00 373.25,26.00 373.25,25.25 373.00,25.25 373.00,24.75 372.75,24.75 372.75,24.25 372.50,24.25 372.50,23.50 372.25,23.50 372.25,23.25 372.00,23.25 372.00,23.00 371.75,23.00 371.75,22.75 371.50,22.75 371.50,22.50 371.25,22.50 371.25,22.25 371.00,22.25 371.00,22.00 370.75,22.00 370.75,21.75 370.50,21.75 370.50,21.50 370.00,21.50 370.00,21.25 369.50,21.25 369.50,21.00 369.00,21.00 369.00,20.75 368.50,20.75 368.50,20.50 368.00,20.50 368.00,20.25 367.50,20.25 367.50,20.00 367.25,20.00 367.25,19.75 366.75,19.75 366.75,19.50 366.00,19.50 366.00,19.25 362.50,19.25 362.50,19.00 362.00,19.00 362.00,18.75 361.50,18.75 361.50,18.50 360.50,18.50 360.50,18.25ZM410.00,18.25 410.00,18.50 409.75,18.50 409.75,18.75 409.25,18.75 409.25,19.00 408.75,19.00 408.75,19.25 406.25,19.25 406.25,19.50 406.00,19.50 406.00,19.75 405.75,19.75 405.75,20.00 405.50,20.00 405.50,20.25 403.25,20.25 403.25,20.50 403.00,20.50 403.00,20.75 402.50,20.75 402.50,21.00 401.75,21.00 401.75,21.25 401.50,21.25 401.50,21.00 401.00,21.00 401.00,21.25 400.25,21.25 400.25,21.50 400.00,21.50 400.00,21.75 399.75,21.75 399.75,22.00 399.50,22.00 399.50,22.25 398.25,22.25 398.25,22.50 398.00,22.50 398.00,22.75 397.75,22.75 397.75,23.00 397.50,23.00 397.50,23.25 397.00,23.25 397.00,23.00 396.50,23.00 396.50,23.25 396.25,23.25 396.25,23.50 396.00,23.50 396.00,23.75 395.50,23.75 395.50,24.00 395.25,24.00 395.25,24.25 395.00,24.25 395.00,24.75 394.75,24.75 394.75,25.00 393.25,25.00 393.25,25.25 393.00,25.25 393.00,25.50 392.75,25.50 392.75,25.75 392.50,25.75 392.50,26.00 392.25,26.00 392.25,26.25 392.00,26.25 392.00,26.50 391.75,26.50 391.75,26.75 391.50,26.75 391.50,27.00 391.00,27.00 391.00,27.25 390.00,27.25 390.00,27.50 389.75,27.50 389.75,27.75 389.50,27.75 389.50,28.00 389.25,28.00 389.25,28.25 389.00,28.25 389.00,28.75 388.75,28.75 388.75,29.00 388.25,29.00 388.25,29.25 388.00,29.25 388.00,29.50 387.75,29.50 387.75,30.00 387.50,30.00 387.50,30.25 387.25,30.25 387.25,30.50 387.00,30.50 387.00,30.75 386.75,30.75 386.75,31.00 386.50,31.00 386.50,31.25 386.00,31.25 386.00,31.50 385.75,31.50 385.75,31.75 385.50,31.75 385.50,32.00 385.00,32.00 385.00,32.50 384.75,32.50 384.75,32.75 384.50,32.75 384.50,33.00 384.25,33.00 384.25,33.25 383.75,33.25 383.75,33.75 383.50,33.75 383.50,34.00 383.25,34.00 383.25,34.25 383.00,34.25 383.00,34.50 382.75,34.50 382.75,34.75 382.50,34.75 382.50,35.00 382.25,35.00 382.25,35.25 382.00,35.25 382.00,35.75 381.75,35.75 381.75,36.00 381.25,36.00 381.25,36.25 381.00,36.25 381.00,36.50 380.50,36.50 380.50,36.75 380.25,36.75 380.25,37.25 380.00,37.25 380.00,38.00 379.75,38.00 379.75,38.50 379.50,38.50 379.50,39.00 379.25,39.00 379.25,39.25 379.00,39.25 379.00,39.50 378.75,39.50 378.75,39.75 378.50,39.75 378.50,40.00 378.25,40.00 378.25,40.25 378.00,40.25 378.00,41.25 377.75,41.25 377.75,41.75 377.50,41.75 377.50,42.00 377.25,42.00 377.25,42.25 377.00,42.25 377.00,43.50 376.75,43.50 376.75,43.75 376.50,43.75 376.50,44.00 376.25,44.00 376.25,44.25 376.00,44.25 376.00,45.00 375.75,45.00 375.75,45.50 375.50,45.50 375.50,45.75 375.25,45.75 375.25,46.25 375.00,46.25 375.00,48.50 374.75,48.50 374.75,48.75 374.50,48.75 374.50,49.00 374.25,49.00 374.25,49.25 374.00,49.25 374.00,52.25 373.75,52.25 373.75,52.75 373.50,52.75 373.50,53.00 373.25,53.00 373.25,53.50 373.00,53.50 373.00,56.50 373.25,56.50 373.25,57.50 373.50,57.50 373.50,58.00 373.75,58.00 373.75,58.50 374.00,58.50 374.00,60.00 374.25,60.00 374.25,60.75 374.50,60.75 374.50,61.00 374.75,61.00 374.75,61.50 375.00,61.50 375.00,62.00 375.25,62.00 375.25,62.50 375.50,62.50 375.50,63.00 375.75,63.00 375.75,63.75 376.00,63.75 376.00,64.50 376.25,64.50 376.25,64.75 376.50,64.75 376.50,65.00 377.00,65.00 377.00,65.25 377.25,65.25 377.25,65.75 377.50,65.75 377.50,66.00 377.75,66.00 377.75,66.25 378.00,66.25 378.00,66.50 378.50,66.50 378.50,66.75 379.00,66.75 379.00,67.00 379.75,67.00 379.75,67.25 380.00,67.25 380.00,67.50 380.25,67.50 380.25,67.75 380.75,67.75 380.75,68.00 381.00,68.00 381.00,68.25 381.50,68.25 381.50,68.50 382.00,68.50 382.00,68.75 383.50,68.75 383.50,69.00 384.00,69.00 384.00,69.25 384.25,69.25 384.25,69.50 384.75,69.50 384.75,69.75 385.25,69.75 385.25,70.00 388.75,70.00 388.75,70.25 389.25,70.25 389.25,70.50 389.75,70.50 389.75,70.75 393.75,70.75 393.75,70.50 396.25,70.50 396.25,70.75 397.75,70.75 397.75,70.50 398.00,70.50 398.00,70.25 398.25,70.25 398.25,70.00 398.50,70.00 398.50,69.75 399.50,69.75 399.50,70.00 400.00,70.00 400.00,69.75 403.25,69.75 403.25,69.50 403.75,69.50 403.75,69.25 404.25,69.25 404.25,69.00 404.75,69.00 404.75,68.75 406.50,68.75 406.50,68.50 406.75,68.50 406.75,68.25 407.25,68.25 407.25,68.00 408.00,68.00 408.00,67.75 409.50,67.75 409.50,67.50 410.00,67.50 410.00,67.25 410.25,67.25 410.25,67.00 410.75,67.00 410.75,66.75 411.50,66.75 411.50,66.50 412.00,66.50 412.00,66.25 412.25,66.25 412.25,66.00 413.00,66.00 413.00,65.75 413.50,65.75 413.50,65.50 414.00,65.50 414.00,65.25 414.25,65.25 414.25,65.00 414.75,65.00 414.75,64.75 415.50,64.75 415.50,64.50 416.00,64.50 416.00,64.25 416.25,64.25 416.25,64.00 416.50,64.00 416.50,63.75 416.75,63.75 416.75,63.50 417.00,63.50 417.00,63.25 417.75,63.25 417.75,63.00 418.25,63.00 418.25,62.75 418.75,62.75 418.75,62.50 419.00,62.50 419.00,62.25 419.25,62.25 419.25,62.00 419.50,62.00 419.50,61.75 419.75,61.75 419.75,61.50 420.00,61.50 420.00,61.25 420.25,61.25 420.25,61.00 420.75,61.00 420.75,60.75 421.25,60.75 421.25,60.50 421.75,60.50 421.75,60.25 422.00,60.25 422.00,60.00 422.25,60.00 422.25,59.75 422.50,59.75 422.50,59.50 422.75,59.50 422.75,59.25 423.00,59.25 423.00,59.00 423.25,59.00 423.25,58.75 423.75,58.75 423.75,58.50 424.00,58.50 424.00,58.00 424.50,58.00 424.50,57.75 424.75,57.75 424.75,57.50 425.00,57.50 425.00,57.25 425.25,57.25 425.25,57.00 425.50,57.00 425.50,56.50 426.00,56.50 426.00,56.25 426.25,56.25 426.25,55.75 426.50,55.75 426.50,55.50 426.75,55.50 426.75,55.25 427.00,55.25 427.00,55.00 427.50,55.00 427.50,54.75 427.75,54.75 427.75,54.50 428.00,54.50 428.00,54.25 428.25,54.25 428.25,53.75 428.50,53.75 428.50,53.25 428.75,53.25 428.75,52.50 429.00,52.50 429.00,52.00 429.25,52.00 429.25,51.75 429.50,51.75 429.50,51.50 429.75,51.50 429.75,51.25 430.00,51.25 430.00,51.00 430.25,51.00 430.25,50.75 430.50,50.75 430.50,50.50 430.75,50.50 430.75,50.25 431.25,50.25 431.25,50.00 431.50,50.00 431.50,48.50 431.75,48.50 431.75,48.25 432.25,48.25 432.25,48.00 432.50,48.00 432.50,47.75 432.75,47.75 432.75,46.50 433.00,46.50 433.00,46.25 433.25,46.25 433.25,46.00 433.50,46.00 433.50,44.75 433.75,44.75 433.75,44.50 434.00,44.50 434.00,44.00 434.25,44.00 434.25,43.75 434.50,43.75 434.50,42.75 434.75,42.75 434.75,42.25 435.25,42.25 435.25,42.00 435.50,42.00 435.50,41.75 435.75,41.75 435.75,41.00 435.50,41.00 435.50,40.00 435.75,40.00 435.75,39.50 436.00,39.50 436.00,39.25 436.25,39.25 436.25,39.00 436.50,39.00 436.50,38.25 436.75,38.25 436.75,38.00 436.50,38.00 436.50,32.00 436.75,32.00 436.75,31.00 436.50,31.00 436.50,27.75 436.25,27.75 436.25,27.25 436.00,27.25 436.00,27.00 435.75,27.00 435.75,26.25 435.50,26.25 435.50,25.75 435.25,25.75 435.25,25.25 435.00,25.25 435.00,25.00 434.75,25.00 434.75,24.75 434.50,24.75 434.50,24.50 434.25,24.50 434.25,24.25 434.00,24.25 434.00,24.00 433.75,24.00 433.75,23.75 433.50,23.75 433.50,23.50 433.25,23.50 433.25,23.25 433.00,23.25 433.00,23.00 432.75,23.00 432.75,22.75 432.50,22.75 432.50,22.50 432.25,22.50 432.25,22.25 432.00,22.25 432.00,22.00 431.75,22.00 431.75,21.75 431.25,21.75 431.25,21.50 431.00,21.50 431.00,21.25 430.75,21.25 430.75,21.00 430.00,21.00 430.00,20.75 429.25,20.75 429.25,20.50 429.00,20.50 429.00,20.25 428.50,20.25 428.50,20.00 428.00,20.00 428.00,19.75 427.50,19.75 427.50,19.50 427.00,19.50 427.00,19.25 424.50,19.25 424.50,19.00 424.00,19.00 424.00,18.75 423.25,18.75 423.25,18.50 422.00,18.50 422.00,18.25 414.50,18.25 414.50,18.50 414.25,18.50 414.25,18.25ZM483.25,18.25 483.25,18.50 482.75,18.50 482.75,18.75 482.25,18.75 482.25,19.00 480.25,19.00 480.25,19.25 480.00,19.25 480.00,19.50 479.50,19.50 479.50,19.75 479.25,19.75 479.25,20.00 478.75,20.00 478.75,20.25 477.25,20.25 477.25,20.50 476.75,20.50 476.75,20.75 476.00,20.75 476.00,21.00 475.75,21.00 475.75,21.25 475.00,21.25 475.00,21.50 474.25,21.50 474.25,21.75 474.00,21.75 474.00,22.00 473.75,22.00 473.75,22.25 473.50,22.25 473.50,22.50 473.25,22.50 473.25,22.75 472.75,22.75 472.75,23.00 471.50,23.00 471.50,21.50 471.75,21.50 471.75,21.25 472.00,21.25 472.00,20.25 471.75,20.25 471.75,19.75 471.25,19.75 471.25,19.50 470.25,19.50 470.25,19.25 455.75,19.25 455.75,19.50 455.00,19.50 455.00,19.25 453.25,19.25 453.25,19.50 453.00,19.50 453.00,20.00 452.75,20.00 452.75,20.75 452.50,20.75 452.50,21.25 452.25,21.25 452.25,21.50 452.00,21.50 452.00,22.00 451.75,22.00 451.75,22.75 451.50,22.75 451.50,23.25 451.25,23.25 451.25,23.50 451.00,23.50 451.00,24.25 450.75,24.25 450.75,25.50 450.50,25.50 450.50,26.00 450.25,26.00 450.25,26.50 450.00,26.50 450.00,27.00 449.75,27.00 449.75,27.50 449.50,27.50 449.50,27.75 449.25,27.75 449.25,28.25 449.00,28.25 449.00,28.75 448.75,28.75 448.75,29.25 448.50,29.25 448.50,29.75 448.25,29.75 448.25,30.00 448.00,30.00 448.00,31.00 447.75,31.00 447.75,31.75 447.50,31.75 447.50,32.00 447.25,32.00 447.25,32.25 447.00,32.25 447.00,32.75 446.75,32.75 446.75,33.75 446.50,33.75 446.50,34.00 446.25,34.00 446.25,34.25 446.00,34.25 446.00,35.25 445.75,35.25 445.75,35.75 445.50,35.75 445.50,36.00 445.25,36.00 445.25,36.25 445.00,36.25 445.00,36.75 444.75,36.75 444.75,37.75 444.50,37.75 444.50,38.00 444.25,38.00 444.25,38.25 444.00,38.25 444.00,39.25 443.75,39.25 443.75,39.75 443.25,39.75 443.25,40.00 443.00,40.00 443.00,40.25 442.75,40.25 442.75,41.75 443.00,41.75 443.00,42.25 442.75,42.25 442.75,42.75 442.25,42.75 442.25,43.00 441.75,43.00 441.75,44.25 442.00,44.25 442.00,44.50 441.75,44.50 441.75,44.75 441.50,44.75 441.50,45.00 441.00,45.00 441.00,45.50 440.75,45.50 440.75,45.75 441.00,45.75 441.00,46.50 440.75,46.50 440.75,46.75 440.50,46.75 440.50,47.00 440.00,47.00 440.00,48.00 439.75,48.00 439.75,48.75 439.50,48.75 439.50,49.00 439.00,49.00 439.00,49.50 438.75,49.50 438.75,50.50 438.50,50.50 438.50,50.75 438.25,50.75 438.25,51.00 438.00,51.00 438.00,52.25 437.75,52.25 437.75,52.75 437.25,52.75 437.25,53.00 437.00,53.00 437.00,53.25 436.75,53.25 436.75,54.75 436.50,54.75 436.50,55.00 436.25,55.00 436.25,55.25 436.00,55.25 436.00,55.75 435.75,55.75 435.75,56.50 435.50,56.50 435.50,56.75 435.25,56.75 435.25,57.00 435.00,57.00 435.00,58.50 434.75,58.50 434.75,59.25 434.50,59.25 434.50,59.75 434.25,59.75 434.25,60.25 434.00,60.25 434.00,60.75 433.75,60.75 433.75,61.00 433.50,61.00 433.50,61.50 433.25,61.50 433.25,62.00 433.00,62.00 433.00,62.50 432.75,62.50 432.75,63.00 432.50,63.00 432.50,63.50 432.25,63.50 432.25,64.00 432.00,64.00 432.00,65.00 431.75,65.00 431.75,65.50 431.50,65.50 431.50,66.00 431.25,66.00 431.25,66.25 431.00,66.25 431.00,67.00 430.75,67.00 430.75,67.25 430.50,67.25 430.50,67.75 430.25,67.75 430.25,68.00 430.00,68.00 430.00,68.50 429.75,68.50 429.75,69.25 429.50,69.25 429.50,69.50 429.25,69.50 429.25,70.00 429.00,70.00 429.00,70.50 428.75,70.50 428.75,71.00 428.50,71.00 428.50,72.00 428.25,72.00 428.25,72.50 428.00,72.50 428.00,72.75 427.75,72.75 427.75,73.25 427.50,73.25 427.50,73.75 427.25,73.75 427.25,74.50 427.00,74.50 427.00,75.00 426.75,75.00 426.75,75.25 426.50,75.25 426.50,75.75 426.25,75.75 426.25,77.00 426.00,77.00 426.00,77.50 425.75,77.50 425.75,77.75 425.50,77.75 425.50,78.00 425.25,78.00 425.25,78.50 425.00,78.50 425.00,79.75 424.75,79.75 424.75,80.00 424.50,80.00 424.50,80.25 424.25,80.25 424.25,81.00 424.00,81.00 424.00,81.75 423.75,81.75 423.75,82.00 423.50,82.00 423.50,82.50 423.25,82.50 423.25,83.50 423.00,83.50 423.00,83.75 422.75,83.75 422.75,84.00 422.50,84.00 422.50,85.50 422.25,85.50 422.25,85.75 421.75,85.75 421.75,86.00 421.50,86.00 421.50,86.25 421.25,86.25 421.25,86.75 421.50,86.75 421.50,87.00 421.75,87.00 421.75,87.25 429.00,87.25 429.00,87.50 429.75,87.50 429.75,87.25 431.00,87.25 431.00,87.50 432.25,87.50 432.25,87.25 441.00,87.25 441.00,87.50 441.50,87.50 441.50,87.25 442.00,87.25 442.00,87.00 442.25,87.00 442.25,84.75 442.50,84.75 442.50,84.50 442.75,84.50 442.75,84.25 443.00,84.25 443.00,84.00 443.25,84.00 443.25,82.50 443.50,82.50 443.50,82.25 444.00,82.25 444.00,82.00 444.25,82.00 444.25,80.75 444.50,80.75 444.50,80.50 444.75,80.50 444.75,80.25 445.00,80.25 445.00,80.00 445.25,80.00 445.25,78.75 445.50,78.75 445.50,78.50 445.75,78.50 445.75,78.25 446.00,78.25 446.00,78.00 446.25,78.00 446.25,76.75 446.50,76.75 446.50,76.25 447.00,76.25 447.00,76.00 447.25,76.00 447.25,75.75 447.50,75.75 447.50,74.50 447.75,74.50 447.75,74.25 448.00,74.25 448.00,74.00 448.25,74.00 448.25,73.50 448.50,73.50 448.50,72.50 448.75,72.50 448.75,72.25 449.00,72.25 449.00,72.00 449.25,72.00 449.25,71.25 449.50,71.25 449.50,70.75 449.75,70.75 449.75,70.50 450.00,70.50 450.00,70.25 450.25,70.25 450.25,69.25 450.50,69.25 450.50,68.75 451.00,68.75 451.00,68.50 451.25,68.50 451.25,67.50 451.50,67.50 451.50,66.00 451.75,66.00 451.75,65.75 452.50,65.75 452.50,66.25 452.75,66.25 452.75,66.50 453.00,66.50 453.00,66.75 453.25,66.75 453.25,67.00 453.75,67.00 453.75,67.25 454.00,67.25 454.00,67.50 454.25,67.50 454.25,67.75 454.50,67.75 454.50,68.00 454.75,68.00 454.75,68.50 455.00,68.50 455.00,68.75 456.50,68.75 456.50,69.00 456.75,69.00 456.75,69.25 457.00,69.25 457.00,69.50 457.25,69.50 457.25,69.75 458.25,69.75 458.25,70.00 458.50,70.00 458.50,69.75 459.25,69.75 459.25,70.00 459.75,70.00 459.75,70.50 460.25,70.50 460.25,70.75 461.25,70.75 461.25,70.50 462.50,70.50 462.50,70.75 466.00,70.75 466.00,70.50 466.75,70.50 466.75,70.25 467.25,70.25 467.25,70.00 469.00,70.00 469.00,69.75 471.25,69.75 471.25,69.50 471.75,69.50 471.75,69.25 472.00,69.25 472.00,69.00 472.50,69.00 472.50,68.75 473.25,68.75 473.25,68.50 473.75,68.50 473.75,68.25 474.00,68.25 474.00,68.00 474.50,68.00 474.50,67.75 475.00,67.75 475.00,67.50 475.75,67.50 475.75,67.25 476.00,67.25 476.00,67.00 476.50,67.00 476.50,66.75 477.00,66.75 477.00,66.50 477.50,66.50 477.50,66.25 478.25,66.25 478.25,66.00 478.75,66.00 478.75,65.75 479.25,65.75 479.25,65.50 479.75,65.50 479.75,65.25 480.00,65.25 480.00,64.75 480.25,64.75 480.25,64.50 480.50,64.50 480.50,64.25 481.00,64.25 481.00,64.00 482.00,64.00 482.00,63.75 482.50,63.75 482.50,63.50 482.75,63.50 482.75,63.25 483.00,63.25 483.00,63.00 483.25,63.00 483.25,62.75 483.50,62.75 483.50,62.50 483.75,62.50 483.75,62.25 484.00,62.25 484.00,62.00 484.25,62.00 484.25,61.75 484.50,61.75 484.50,61.50 484.75,61.50 484.75,61.25 485.00,61.25 485.00,61.00 485.25,61.00 485.25,60.75 485.50,60.75 485.50,60.50 485.75,60.50 485.75,60.25 486.00,60.25 486.00,60.00 486.25,60.00 486.25,59.75 486.50,59.75 486.50,59.50 486.75,59.50 486.75,59.25 487.00,59.25 487.00,59.00 487.25,59.00 487.25,58.75 487.50,58.75 487.50,58.50 487.75,58.50 487.75,58.25 488.00,58.25 488.00,58.00 488.25,58.00 488.25,57.75 488.50,57.75 488.50,57.25 488.75,57.25 488.75,57.00 489.00,57.00 489.00,56.75 489.25,56.75 489.25,56.50 489.50,56.50 489.50,56.25 489.75,56.25 489.75,56.00 490.00,56.00 490.00,55.75 490.25,55.75 490.25,55.00 490.50,55.00 490.50,54.50 490.75,54.50 490.75,54.00 491.00,54.00 491.00,53.75 491.25,53.75 491.25,53.50 491.50,53.50 491.50,53.25 492.00,53.25 492.00,53.00 492.25,53.00 492.25,52.00 492.50,52.00 492.50,51.50 492.75,51.50 492.75,51.25 493.00,51.25 493.00,51.00 493.25,51.00 493.25,50.75 493.50,50.75 493.50,50.50 493.75,50.50 493.75,50.25 494.00,50.25 494.00,49.75 494.25,49.75 494.25,48.75 494.50,48.75 494.50,48.50 494.75,48.50 494.75,48.25 495.25,48.25 495.25,48.00 495.50,48.00 495.50,46.50 495.75,46.50 495.75,46.25 496.00,46.25 496.00,46.00 496.25,46.00 496.25,44.75 496.50,44.75 496.50,44.50 496.75,44.50 496.75,44.25 497.00,44.25 497.00,44.00 497.25,44.00 497.25,43.75 497.50,43.75 497.50,43.25 497.25,43.25 497.25,42.75 497.50,42.75 497.50,42.50 497.75,42.50 497.75,42.25 498.00,42.25 498.00,42.00 498.25,42.00 498.25,41.25 498.50,41.25 498.50,39.50 498.75,39.50 498.75,39.25 499.00,39.25 499.00,38.75 499.25,38.75 499.25,38.00 499.50,38.00 499.50,37.00 499.25,37.00 499.25,36.00 499.50,36.00 499.50,35.50 499.75,35.50 499.75,35.25 500.00,35.25 500.00,35.00 500.25,35.00 500.25,32.75 500.50,32.75 500.50,31.50 500.25,31.50 500.25,26.50 500.00,26.50 500.00,26.25 499.75,26.25 499.75,26.00 499.50,26.00 499.50,25.50 499.25,25.50 499.25,24.25 499.00,24.25 499.00,24.00 498.75,24.00 498.75,23.75 498.50,23.75 498.50,23.50 498.25,23.50 498.25,22.75 498.00,22.75 498.00,22.25 497.75,22.25 497.75,22.00 497.50,22.00 497.50,21.75 497.25,21.75 497.25,21.50 497.00,21.50 497.00,21.25 496.75,21.25 496.75,21.00 496.50,21.00 496.50,20.75 496.25,20.75 496.25,20.50 496.00,20.50 496.00,20.25 495.50,20.25 495.50,20.00 494.50,20.00 494.50,19.75 494.00,19.75 494.00,19.50 493.75,19.50 493.75,19.25 492.75,19.25 492.75,19.00 492.25,19.00 492.25,18.75 491.75,18.75 491.75,18.50 489.25,18.50 489.25,18.25ZM536.25,18.25 536.25,18.50 535.50,18.50 535.50,18.75 534.75,18.75 534.75,19.00 533.75,19.00 533.75,19.25 531.50,19.25 531.50,19.50 530.50,19.50 530.50,19.75 530.00,19.75 530.00,20.00 528.75,20.00 528.75,20.25 528.25,20.25 528.25,20.50 527.75,20.50 527.75,20.75 527.50,20.75 527.50,21.00 526.75,21.00 526.75,21.25 526.00,21.25 526.00,21.50 525.75,21.50 525.75,21.75 525.25,21.75 525.25,22.00 524.50,22.00 524.50,22.25 524.00,22.25 524.00,22.50 523.75,22.50 523.75,22.75 523.25,22.75 523.25,23.00 522.25,23.00 522.25,23.25 522.00,23.25 522.00,23.50 521.75,23.50 521.75,23.75 521.25,23.75 521.25,24.00 520.75,24.00 520.75,24.25 520.25,24.25 520.25,24.50 520.00,24.50 520.00,24.75 519.75,24.75 519.75,25.00 518.75,25.00 518.75,25.25 518.25,25.25 518.25,25.50 518.00,25.50 518.00,25.75 517.75,25.75 517.75,26.00 517.50,26.00 517.50,26.25 517.00,26.25 517.00,26.50 516.75,26.50 516.75,26.75 516.50,26.75 516.50,27.00 516.25,27.00 516.25,27.25 516.00,27.25 516.00,27.50 515.75,27.50 515.75,27.75 514.50,27.75 514.50,28.00 514.25,28.00 514.25,28.25 514.00,28.25 514.00,28.50 513.75,28.50 513.75,28.75 513.50,28.75 513.50,29.00 513.25,29.00 513.25,29.25 512.75,29.25 512.75,29.50 512.50,29.50 512.50,29.75 512.25,29.75 512.25,30.25 512.00,30.25 512.00,30.50 511.75,30.50 511.75,30.75 511.50,30.75 511.50,31.00 511.25,31.00 511.25,31.25 511.00,31.25 511.00,31.50 510.75,31.50 510.75,31.75 510.25,31.75 510.25,32.00 510.00,32.00 510.00,32.50 509.75,32.50 509.75,32.75 509.50,32.75 509.50,33.00 509.00,33.00 509.00,33.50 508.75,33.50 508.75,33.75 508.50,33.75 508.50,34.00 508.25,34.00 508.25,34.25 508.00,34.25 508.00,34.50 507.75,34.50 507.75,35.75 507.50,35.75 507.50,36.00 507.00,36.00 507.00,36.25 506.75,36.25 506.75,36.75 506.50,36.75 506.50,37.00 506.25,37.00 506.25,37.25 506.00,37.25 506.00,37.50 505.75,37.50 505.75,37.75 505.50,37.75 505.50,38.00 505.00,38.00 505.00,38.50 504.75,38.50 504.75,39.50 504.50,39.50 504.50,39.75 504.25,39.75 504.25,40.00 504.00,40.00 504.00,40.25 503.75,40.25 503.75,41.50 503.50,41.50 503.50,41.75 503.25,41.75 503.25,42.00 503.00,42.00 503.00,42.25 502.75,42.25 502.75,43.50 502.50,43.50 502.50,43.75 502.25,43.75 502.25,44.00 502.00,44.00 502.00,44.25 501.75,44.25 501.75,45.75 501.25,45.75 501.25,46.00 501.00,46.00 501.00,46.25 500.75,46.25 500.75,47.00 501.00,47.00 501.00,47.50 500.75,47.50 500.75,47.75 500.50,47.75 500.50,48.00 500.00,48.00 500.00,48.50 499.75,48.50 499.75,51.50 499.50,51.50 499.50,51.75 499.25,51.75 499.25,52.00 499.00,52.00 499.00,52.50 498.75,52.50 498.75,53.25 499.00,53.25 499.00,54.25 498.75,54.25 498.75,59.75 499.00,59.75 499.00,60.50 499.25,60.50 499.25,61.00 499.50,61.00 499.50,61.50 499.75,61.50 499.75,62.00 500.00,62.00 500.00,62.50 500.25,62.50 500.25,62.75 500.50,62.75 500.50,63.25 500.75,63.25 500.75,64.00 501.00,64.00 501.00,64.50 501.25,64.50 501.25,64.75 501.50,64.75 501.50,65.00 501.75,65.00 501.75,65.25 502.00,65.25 502.00,65.50 502.25,65.50 502.25,65.75 502.50,65.75 502.50,66.25 502.75,66.25 502.75,66.50 503.25,66.50 503.25,66.75 503.50,66.75 503.50,67.00 503.75,67.00 503.75,67.25 504.00,67.25 504.00,67.75 505.50,67.75 505.50,68.00 505.75,68.00 505.75,68.25 506.00,68.25 506.00,68.50 506.25,68.50 506.25,68.75 507.75,68.75 507.75,69.25 508.00,69.25 508.00,69.50 510.25,69.50 510.25,69.75 512.00,69.75 512.00,70.00 513.75,70.00 513.75,70.25 514.00,70.25 514.00,70.50 514.25,70.50 514.25,70.75 524.25,70.75 524.25,70.50 524.75,70.50 524.75,70.25 525.25,70.25 525.25,70.00 525.75,70.00 525.75,69.75 527.00,69.75 527.00,70.00 528.50,70.00 528.50,69.75 530.75,69.75 530.75,69.50 531.25,69.50 531.25,69.25 531.75,69.25 531.75,69.00 532.50,69.00 532.50,68.75 534.00,68.75 534.00,68.50 534.50,68.50 534.50,68.25 535.00,68.25 535.00,68.00 535.75,68.00 535.75,67.75 537.25,67.75 537.25,67.50 537.75,67.50 537.75,67.25 538.25,67.25 538.25,67.00 538.75,67.00 538.75,66.75 539.00,66.75 539.00,66.50 539.50,66.50 539.50,66.25 540.00,66.25 540.00,66.00 540.50,66.00 540.50,65.75 541.00,65.75 541.00,65.50 541.25,65.50 541.25,65.25 541.75,65.25 541.75,65.00 542.25,65.00 542.25,64.75 542.75,64.75 542.75,64.50 543.50,64.50 543.50,64.25 544.00,64.25 544.00,64.00 544.25,64.00 544.25,63.50 544.50,63.50 544.50,63.25 544.75,63.25 544.75,63.00 545.75,63.00 545.75,62.75 546.00,62.75 546.00,62.50 546.25,62.50 546.25,62.25 546.50,62.25 546.50,62.00 547.00,62.00 547.00,61.75 547.25,61.75 547.25,61.50 547.50,61.50 547.50,61.25 547.75,61.25 547.75,61.00 548.00,61.00 548.00,60.75 548.25,60.75 548.25,60.50 548.50,60.50 548.50,60.25 548.75,60.25 548.75,60.00 549.25,60.00 549.25,59.75 549.50,59.75 549.50,59.25 550.00,59.25 550.00,59.00 550.75,59.00 550.75,58.75 551.25,58.75 551.25,58.50 551.50,58.50 551.50,58.25 551.75,58.25 551.75,57.75 552.00,57.75 552.00,57.50 552.50,57.50 552.50,57.25 552.75,57.25 552.75,57.00 553.00,57.00 553.00,56.75 553.25,56.75 553.25,56.00 553.00,56.00 553.00,55.75 551.75,55.75 551.75,55.50 550.00,55.50 550.00,55.25 549.50,55.25 549.50,55.00 549.25,55.00 549.25,54.75 548.75,54.75 548.75,54.50 546.25,54.50 546.25,54.75 545.00,54.75 545.00,54.50 540.25,54.50 540.25,54.25 539.75,54.25 539.75,54.00 539.50,54.00 539.50,53.75 538.75,53.75 538.75,53.50 537.00,53.50 537.00,53.75 536.25,53.75 536.25,53.50 535.00,53.50 535.00,53.75 534.50,53.75 534.50,54.00 534.25,54.00 534.25,54.25 534.00,54.25 534.00,54.50 533.75,54.50 533.75,54.75 533.25,54.75 533.25,55.00 533.00,55.00 533.00,55.25 532.75,55.25 532.75,55.50 532.25,55.50 532.25,55.75 531.75,55.75 531.75,56.00 531.00,56.00 531.00,56.25 530.50,56.25 530.50,56.50 530.00,56.50 530.00,56.75 529.50,56.75 529.50,57.00 529.00,57.00 529.00,57.25 528.25,57.25 528.25,57.50 526.00,57.50 526.00,57.75 525.75,57.75 525.75,58.00 525.25,58.00 525.25,58.25 524.50,58.25 524.50,58.50 523.75,58.50 523.75,58.25 523.25,58.25 523.25,58.00 523.00,58.00 523.00,57.75 522.75,57.75 522.75,57.50 521.75,57.50 521.75,57.25 521.25,57.25 521.25,57.00 521.00,57.00 521.00,56.75 520.50,56.75 520.50,56.50 520.25,56.50 520.25,56.00 520.00,56.00 520.00,55.75 519.50,55.75 519.50,55.25 519.25,55.25 519.25,52.50 519.50,52.50 519.50,52.25 519.75,52.25 519.75,52.00 520.00,52.00 520.00,51.00 520.25,51.00 520.25,50.25 554.25,50.25 554.25,50.00 555.25,50.00 555.25,50.25 556.50,50.25 556.50,50.00 557.00,50.00 557.00,49.75 557.25,49.75 557.25,49.50 557.50,49.50 557.50,49.25 557.75,49.25 557.75,49.00 558.25,49.00 558.25,48.75 558.50,48.75 558.50,47.50 558.75,47.50 558.75,47.25 559.00,47.25 559.00,47.00 559.25,47.00 559.25,46.50 559.50,46.50 559.50,45.50 559.75,45.50 559.75,45.25 560.00,45.25 560.00,45.00 560.25,45.00 560.25,42.50 560.50,42.50 560.50,42.25 561.00,42.25 561.00,42.00 561.25,42.00 561.25,39.50 561.50,39.50 561.50,39.25 562.00,39.25 562.00,38.75 562.25,38.75 562.25,37.75 562.50,37.75 562.50,36.75 562.25,36.75 562.25,35.75 562.50,35.75 562.50,35.50 562.75,35.50 562.75,35.25 563.00,35.25 563.00,35.00 563.25,35.00 563.25,34.25 563.50,34.25 563.50,33.00 563.25,33.00 563.25,29.25 563.00,29.25 563.00,29.00 562.50,29.00 562.50,28.75 562.25,28.75 562.25,26.75 562.00,26.75 562.00,26.25 561.75,26.25 561.75,26.00 561.50,26.00 561.50,25.75 561.25,25.75 561.25,24.75 561.00,24.75 561.00,24.50 560.75,24.50 560.75,24.25 560.50,24.25 560.50,24.00 560.25,24.00 560.25,23.75 560.00,23.75 560.00,23.25 559.75,23.25 559.75,23.00 559.50,23.00 559.50,22.75 559.25,22.75 559.25,22.50 559.00,22.50 559.00,22.25 558.75,22.25 558.75,22.00 558.50,22.00 558.50,21.75 558.25,21.75 558.25,21.50 558.00,21.50 558.00,21.25 557.50,21.25 557.50,21.00 557.00,21.00 557.00,21.25 556.75,21.25 556.75,21.00 556.25,21.00 556.25,20.75 556.00,20.75 556.00,20.25 554.75,20.25 554.75,20.00 554.25,20.00 554.25,19.75 554.00,19.75 554.00,19.50 553.50,19.50 553.50,19.25 551.25,19.25 551.25,19.00 550.75,19.00 550.75,18.75 550.50,18.75 550.50,18.50 549.75,18.50 549.75,18.25ZM104.00,30.50 105.25,30.50 105.25,30.75 105.50,30.75 105.50,31.00 105.75,31.00 105.75,31.25 106.00,31.25 106.00,31.50 107.25,31.50 107.25,31.75 107.75,31.75 107.75,32.75 108.00,32.75 108.00,33.25 108.25,33.25 108.25,33.50 108.50,33.50 108.50,34.00 108.75,34.00 108.75,35.50 108.50,35.50 108.50,35.75 108.25,35.75 108.25,36.00 108.00,36.00 108.00,36.25 107.75,36.25 107.75,38.50 107.50,38.50 107.50,38.75 99.25,38.75 99.25,39.00 96.50,39.00 96.50,38.75 92.25,38.75 92.25,38.50 91.25,38.50 91.25,38.25 91.50,38.25 91.50,37.75 92.00,37.75 92.00,37.50 92.25,37.50 92.25,37.25 92.50,37.25 92.50,36.75 93.00,36.75 93.00,36.50 93.25,36.50 93.25,36.25 93.50,36.25 93.50,36.00 93.75,36.00 93.75,35.75 94.00,35.75 94.00,35.50 94.25,35.50 94.25,35.25 94.50,35.25 94.50,35.00 94.75,35.00 94.75,34.75 95.00,34.75 95.00,34.50 95.25,34.50 95.25,34.25 95.50,34.25 95.50,33.75 95.75,33.75 95.75,33.50 96.00,33.50 96.00,33.25 96.25,33.25 96.25,33.00 96.50,33.00 96.50,32.75 97.00,32.75 97.00,32.50 98.00,32.50 98.00,32.25 98.50,32.25 98.50,32.00 98.75,32.00 98.75,31.75 99.75,31.75 99.75,31.50 101.00,31.50 101.00,31.25 101.25,31.25 101.25,31.00 101.75,31.00 101.75,30.75 104.00,30.75ZM536.25,30.75 539.50,30.75 539.50,31.00 540.00,31.00 540.00,31.25 540.50,31.25 540.50,31.50 541.25,31.50 541.25,31.75 541.75,31.75 541.75,32.00 542.00,32.00 542.00,32.50 542.25,32.50 542.25,33.00 542.50,33.00 542.50,33.25 542.75,33.25 542.75,33.75 543.00,33.75 543.00,34.25 542.75,34.25 542.75,34.50 543.00,34.50 543.00,35.75 542.50,35.75 542.50,36.00 542.25,36.00 542.25,36.50 542.00,36.50 542.00,38.25 541.75,38.25 541.75,38.50 541.00,38.50 541.00,38.75 526.25,38.75 526.25,38.50 525.75,38.50 525.75,38.25 526.00,38.25 526.00,38.00 526.25,38.00 526.25,37.75 526.50,37.75 526.50,37.50 527.00,37.50 527.00,37.00 527.25,37.00 527.25,36.50 527.50,36.50 527.50,36.25 527.75,36.25 527.75,36.00 528.00,36.00 528.00,35.75 528.25,35.75 528.25,35.50 528.50,35.50 528.50,35.00 529.00,35.00 529.00,34.75 529.25,34.75 529.25,34.50 529.50,34.50 529.50,34.25 529.75,34.25 529.75,34.00 530.00,34.00 530.00,33.75 530.50,33.75 530.50,33.50 530.75,33.50 530.75,33.25 531.00,33.25 531.00,33.00 531.25,33.00 531.25,32.75 531.50,32.75 531.50,32.50 532.25,32.50 532.25,32.25 532.75,32.25 532.75,32.00 533.00,32.00 533.00,31.75 533.50,31.75 533.50,31.50 534.00,31.50 534.00,31.75 534.75,31.75 534.75,31.50 535.50,31.50 535.50,31.25 536.00,31.25 536.00,31.00 536.25,31.00ZM225.50,32.50 230.25,32.50 230.25,32.75 230.50,32.75 230.50,33.00 230.75,33.00 230.75,33.25 231.00,33.25 231.00,33.50 231.50,33.50 231.50,33.75 231.75,33.75 231.75,34.00 232.00,34.00 232.00,34.50 232.25,34.50 232.25,35.00 232.50,35.00 232.50,37.00 232.75,37.00 232.75,39.50 232.50,39.50 232.50,39.75 232.25,39.75 232.25,40.00 232.00,40.00 232.00,40.25 231.75,40.25 231.75,42.75 231.25,42.75 231.25,43.00 230.75,43.00 230.75,44.50 230.50,44.50 230.50,44.75 230.25,44.75 230.25,45.00 229.75,45.00 229.75,46.75 229.25,46.75 229.25,47.00 229.00,47.00 229.00,47.25 228.75,47.25 228.75,48.50 228.50,48.50 228.50,48.75 228.00,48.75 228.00,49.00 227.75,49.00 227.75,49.50 227.50,49.50 227.50,49.75 227.25,49.75 227.25,50.00 227.00,50.00 227.00,50.25 226.75,50.25 226.75,50.50 226.50,50.50 226.50,50.75 226.25,50.75 226.25,51.00 226.00,51.00 226.00,51.25 225.75,51.25 225.75,52.50 225.50,52.50 225.50,52.75 224.00,52.75 224.00,53.00 223.75,53.00 223.75,53.50 223.50,53.50 223.50,53.75 223.25,53.75 223.25,54.00 222.75,54.00 222.75,54.25 222.50,54.25 222.50,54.50 221.25,54.50 221.25,54.75 221.00,54.75 221.00,55.00 220.75,55.00 220.75,55.25 220.50,55.25 220.50,55.50 219.25,55.50 219.25,55.75 219.00,55.75 219.00,56.00 218.75,56.00 218.75,56.25 218.50,56.25 218.50,56.50 217.50,56.50 217.50,56.25 217.00,56.25 217.00,56.50 214.25,56.50 214.25,56.25 213.75,56.25 213.75,56.00 213.50,56.00 213.50,55.75 213.25,55.75 213.25,55.50 212.75,55.50 212.75,55.25 212.50,55.25 212.50,55.00 212.25,55.00 212.25,54.50 212.00,54.50 212.00,54.25 211.75,54.25 211.75,54.00 211.50,54.00 211.50,48.50 211.75,48.50 211.75,48.25 212.00,48.25 212.00,48.00 212.25,48.00 212.25,45.75 212.50,45.75 212.50,45.50 212.75,45.50 212.75,45.25 213.00,45.25 213.00,45.00 213.25,45.00 213.25,44.75 213.50,44.75 213.50,43.50 213.75,43.50 213.75,43.25 214.00,43.25 214.00,43.00 214.25,43.00 214.25,42.75 214.50,42.75 214.50,41.75 214.75,41.75 214.75,41.25 215.00,41.25 215.00,41.00 215.25,41.00 215.25,40.75 215.50,40.75 215.50,40.50 215.75,40.50 215.75,40.25 216.00,40.25 216.00,40.00 216.25,40.00 216.25,39.50 216.50,39.50 216.50,39.25 217.00,39.25 217.00,39.00 217.25,39.00 217.25,37.75 217.50,37.75 217.50,37.50 217.75,37.50 217.75,37.25 218.00,37.25 218.00,37.00 218.25,37.00 218.25,36.75 218.50,36.75 218.50,36.50 218.75,36.50 218.75,36.25 219.25,36.25 219.25,36.00 219.50,36.00 219.50,35.50 220.25,35.50 220.25,35.25 221.00,35.25 221.00,35.00 221.25,35.00 221.25,34.50 221.50,34.50 221.50,34.25 222.00,34.25 222.00,34.00 222.25,34.00 222.25,33.50 222.50,33.50 222.50,33.25 223.25,33.25 223.25,33.50 224.75,33.50 224.75,33.25 225.00,33.25 225.00,33.00 225.25,33.00 225.25,32.75 225.50,32.75ZM408.50,32.50 412.25,32.50 412.25,32.75 413.25,32.75 413.25,33.00 413.50,33.00 413.50,33.25 413.75,33.25 413.75,33.75 414.00,33.75 414.00,34.00 414.25,34.00 414.25,34.25 414.50,34.25 414.50,34.50 414.75,34.50 414.75,34.75 415.00,34.75 415.00,35.00 415.25,35.00 415.25,37.50 415.50,37.50 415.50,40.50 415.25,40.50 415.25,40.75 415.00,40.75 415.00,41.00 414.75,41.00 414.75,41.25 414.50,41.25 414.50,41.50 414.25,41.50 414.25,42.50 414.50,42.50 414.50,43.50 414.25,43.50 414.25,43.75 414.00,43.75 414.00,44.00 413.50,44.00 413.50,45.50 413.25,45.50 413.25,45.75 413.00,45.75 413.00,46.00 412.50,46.00 412.50,47.50 412.25,47.50 412.25,47.75 411.75,47.75 411.75,48.25 411.50,48.25 411.50,48.50 411.25,48.50 411.25,48.75 410.75,48.75 410.75,49.00 410.50,49.00 410.50,50.50 410.00,50.50 410.00,50.75 409.75,50.75 409.75,51.00 409.50,51.00 409.50,51.25 409.25,51.25 409.25,51.75 409.00,51.75 409.00,52.00 408.75,52.00 408.75,52.25 408.50,52.25 408.50,52.50 408.25,52.50 408.25,52.75 408.00,52.75 408.00,53.00 407.75,53.00 407.75,53.25 407.50,53.25 407.50,53.50 406.25,53.50 406.25,53.75 406.00,53.75 406.00,54.00 405.75,54.00 405.75,54.25 405.50,54.25 405.50,54.50 405.00,54.50 405.00,54.75 404.75,54.75 404.75,55.00 404.50,55.00 404.50,55.25 404.25,55.25 404.25,55.50 402.25,55.50 402.25,55.75 401.75,55.75 401.75,56.00 401.50,56.00 401.50,56.25 401.25,56.25 401.25,56.50 399.75,56.50 399.75,56.25 398.00,56.25 398.00,56.50 397.75,56.50 397.75,56.25 397.50,56.25 397.50,56.00 397.25,56.00 397.25,55.75 397.00,55.75 397.00,55.50 395.50,55.50 395.50,55.00 395.25,55.00 395.25,53.75 394.75,53.75 394.75,53.50 394.50,53.50 394.50,53.25 394.25,53.25 394.25,51.75 394.50,51.75 394.50,50.50 394.25,50.50 394.25,49.50 394.50,49.50 394.50,49.25 394.75,49.25 394.75,49.00 395.25,49.00 395.25,46.50 395.50,46.50 395.50,46.25 396.00,46.25 396.00,46.00 396.25,46.00 396.25,44.50 396.50,44.50 396.50,44.25 397.00,44.25 397.00,44.00 397.25,44.00 397.25,42.50 397.50,42.50 397.50,42.25 398.00,42.25 398.00,41.75 398.25,41.75 398.25,41.50 398.50,41.50 398.50,41.25 398.75,41.25 398.75,41.00 399.25,41.00 399.25,39.50 399.50,39.50 399.50,39.25 399.75,39.25 399.75,39.00 400.00,39.00 400.00,38.75 400.25,38.75 400.25,38.50 400.50,38.50 400.50,38.25 400.75,38.25 400.75,38.00 401.00,38.00 401.00,37.75 401.25,37.75 401.25,37.25 401.50,37.25 401.50,37.00 402.00,37.00 402.00,36.75 402.25,36.75 402.25,36.50 402.50,36.50 402.50,36.25 402.75,36.25 402.75,36.00 403.00,36.00 403.00,35.75 403.25,35.75 403.25,35.50 403.50,35.50 403.50,35.25 404.00,35.25 404.00,35.00 404.25,35.00 404.25,34.75 404.50,34.75 404.50,34.50 405.50,34.50 405.50,34.25 406.00,34.25 406.00,34.00 406.25,34.00 406.25,33.75 406.50,33.75 406.50,33.50 407.50,33.50 407.50,33.25 408.00,33.25 408.00,33.00 408.25,33.00 408.25,32.75 408.50,32.75ZM472.50,33.50 476.50,33.50 476.50,33.75 477.00,33.75 477.00,34.00 477.25,34.00 477.25,34.25 477.75,34.25 477.75,34.75 478.00,34.75 478.00,35.00 478.25,35.00 478.25,39.25 478.00,39.25 478.00,40.75 478.25,40.75 478.25,41.25 478.00,41.25 478.00,41.50 477.75,41.50 477.75,41.75 477.50,41.75 477.50,42.00 477.25,42.00 477.25,43.00 477.50,43.00 477.50,43.50 477.25,43.50 477.25,43.75 476.75,43.75 476.75,44.00 476.50,44.00 476.50,44.25 476.25,44.25 476.25,45.50 476.00,45.50 476.00,45.75 475.75,45.75 475.75,46.00 475.50,46.00 475.50,46.25 475.25,46.25 475.25,47.50 475.00,47.50 475.00,47.75 474.75,47.75 474.75,48.00 474.50,48.00 474.50,48.25 474.25,48.25 474.25,48.50 474.00,48.50 474.00,48.75 473.75,48.75 473.75,49.00 473.50,49.00 473.50,49.25 473.25,49.25 473.25,50.00 473.00,50.00 473.00,50.75 472.75,50.75 472.75,51.00 472.50,51.00 472.50,51.25 472.00,51.25 472.00,51.75 471.75,51.75 471.75,52.00 471.50,52.00 471.50,52.25 471.25,52.25 471.25,52.50 470.25,52.50 470.25,52.75 469.75,52.75 469.75,53.00 469.50,53.00 469.50,53.25 469.25,53.25 469.25,53.50 468.75,53.50 468.75,53.75 468.50,53.75 468.50,54.25 468.25,54.25 468.25,54.50 466.00,54.50 466.00,54.75 465.75,54.75 465.75,55.00 465.50,55.00 465.50,55.25 465.25,55.25 465.25,55.50 463.50,55.50 463.50,55.25 463.25,55.25 463.25,55.00 463.00,55.00 463.00,54.75 462.75,54.75 462.75,54.50 461.50,54.50 461.50,54.25 461.25,54.25 461.25,54.00 461.00,54.00 461.00,53.75 460.75,53.75 460.75,53.50 460.50,53.50 460.50,53.00 460.25,53.00 460.25,50.25 460.00,50.25 460.00,49.25 460.25,49.25 460.25,47.50 460.50,47.50 460.50,47.25 460.75,47.25 460.75,47.00 461.00,47.00 461.00,46.50 461.25,46.50 461.25,45.50 461.50,45.50 461.50,45.25 461.75,45.25 461.75,45.00 462.00,45.00 462.00,44.50 462.25,44.50 462.25,43.50 462.50,43.50 462.50,43.25 462.75,43.25 462.75,43.00 463.00,43.00 463.00,42.75 463.25,42.75 463.25,41.50 463.50,41.50 463.50,41.25 463.75,41.25 463.75,41.00 464.00,41.00 464.00,40.75 464.25,40.75 464.25,40.25 464.50,40.25 464.50,40.00 465.00,40.00 465.00,39.50 465.25,39.50 465.25,38.50 465.50,38.50 465.50,38.25 465.75,38.25 465.75,37.75 466.00,37.75 466.00,37.50 466.25,37.50 466.25,37.25 466.50,37.25 466.50,37.00 467.00,37.00 467.00,36.75 467.25,36.75 467.25,36.25 467.75,36.25 467.75,36.00 468.00,36.00 468.00,35.75 468.25,35.75 468.25,35.50 468.50,35.50 468.50,35.25 469.75,35.25 469.75,35.00 470.00,35.00 470.00,34.75 470.25,34.75 470.25,34.50 471.00,34.50 471.00,34.25 471.75,34.25 471.75,34.00 472.00,34.00 472.00,33.75 472.50,33.75Z"/>
</svg>
