<svg xmlns="http://www.w3.org/2000/svg" viewBox="0 0 379 133" width="379" height="133">
  <path fill="#04205F" fill-rule="evenodd" d="M325.94,99.94 325.56,100.56 325.16,100.97 324.72,101.16 324.25,101.12 323.75,100.88 323.31,100.75 322.94,100.75 322.62,100.88 322.38,101.12 320.44,101.31 316.81,101.44 311.5,101.5 304.5,101.5 299.19,101.38 295.56,101.12 293.62,100.75 293.38,100.25 293.09,99.91 292.78,99.72 292.44,99.69 292.06,99.81 291.88,99.81 291.88,99.69 292.06,99.44 292.44,99.06 293.09,98.72 294.03,98.41 295.25,98.12 296.75,97.88 297.97,97.59 298.91,97.28 299.56,96.94 299.94,96.56 299.91,95.34 299.47,93.28 298.62,90.38 297.38,86.62 296.5,83.75 296,81.75 295.88,80.62 296.12,80.38 296.19,80.12 296.06,79.88 295.75,79.62 295.25,79.38 294.91,79.03 294.72,78.59 294.69,78.06 294.81,77.44 294.78,76.91 294.59,76.47 294.25,76.12 293.75,75.88 291.75,75.69 288.25,75.56 283.25,75.5 276.75,75.5 271.53,76.09 267.59,77.28 264.94,79.06 263.56,81.44 262.59,83.28 262.03,84.59 261.88,85.38 262.12,85.62 262.06,86.38 261.69,87.62 261,89.38 260,91.62 259.47,93.47 259.41,94.91 259.81,95.94 260.69,96.56 261.72,97.03 262.91,97.34 264.25,97.5 265.75,97.5 266.81,97.75 267.44,98.25 267.62,99 267.38,100 267.12,100.69 266.88,101.06 266.62,101.12 266.38,100.88 266.12,100.75 265.88,100.75 265.62,100.88 265.38,101.12 263.81,101.31 260.94,101.44 256.75,101.5 251.25,101.5 247.06,101.44 244.19,101.31 242.62,101.12 242.38,100.88 242.06,100.75 241.69,100.75 241.25,100.88 240.75,101.12 240.47,101.16 240.41,100.97 240.56,100.56 240.94,99.94 241.12,99.44 241.12,99.06 240.94,98.81 240.56,98.69 239.72,98.84 238.41,99.28 236.62,100 234.38,101 232.5,101.69 231,102.06 229.88,102.12 229.12,101.88 228.25,101.75 227.25,101.75 226.12,101.88 224.88,102.12 223.78,102.22 222.84,102.16 222.06,101.94 221.44,101.56 220.91,100.84 220.47,99.78 220.12,98.38 219.88,96.62 219.59,95.28 219.28,94.34 218.94,93.81 218.56,93.69 217.66,94.09 216.22,95.03 214.25,96.5 211.75,98.5 209,100.06 206,101.19 202.75,101.88 199.25,102.12 196.31,102.19 193.94,102.06 192.12,101.75 190.88,101.25 189.53,100.47 188.09,99.41 186.56,98.06 184.94,96.44 183.78,95.16 183.09,94.22 182.88,93.62 183.12,93.38 183.19,93.12 183.06,92.88 182.75,92.62 182.25,92.38 181.75,91.88 181.25,91.12 180.75,90.12 180.25,88.88 179.81,87.12 179.44,84.88 179.12,82.12 178.88,78.88 178.81,76.25 178.94,74.25 179.25,72.88 179.75,72.12 180.06,71.44 180.19,70.81 180.12,70.25 179.88,69.75 179.88,68.94 180.12,67.81 180.62,66.38 181.38,64.62 182.47,62.72 183.91,60.66 185.69,58.44 187.81,56.06 189.47,54.34 190.66,53.28 191.38,52.88 191.62,53.12 191.88,53.19 192.12,53.06 192.38,52.75 192.62,52.25 193.5,51.62 195,50.88 197.12,50 199.88,49 202.91,48.28 206.22,47.84 209.81,47.69 213.69,47.81 216.53,46.28 218.34,43.09 219.12,38.25 218.88,31.75 218.41,26.72 217.72,23.16 216.81,21.06 215.69,20.44 214.59,19.97 213.53,19.66 212.5,19.5 211.5,19.5 210.66,19.34 209.97,19.03 209.44,18.56 209.06,17.94 208.94,17.38 209.06,16.88 209.44,16.44 210.06,16.06 210.59,15.84 211.03,15.78 211.38,15.88 211.62,16.12 212.88,16.12 215.12,15.88 218.38,15.38 222.62,14.62 225.91,14.16 228.22,13.97 229.56,14.06 229.94,14.44 230.16,14.78 230.22,15.09 230.12,15.38 229.88,15.62 229.75,15.94 229.75,16.31 229.88,16.75 230.12,17.25 230.31,22.38 230.44,32.12 230.5,46.5 230.5,65.5 230.66,79.91 230.97,89.72 231.44,94.94 232.06,95.56 233.03,95.97 234.34,96.16 236,96.12 238,95.88 239.56,95.88 240.69,96.12 241.38,96.62 241.62,97.38 242.31,97.81 243.44,97.94 245,97.75 247,97.25 249.16,95.53 251.47,92.59 253.94,88.44 256.56,83.06 258.66,78.97 260.22,76.16 261.25,74.62 261.75,74.38 262.06,74.06 262.19,73.69 262.12,73.25 261.88,72.75 262,71.69 262.5,70.06 263.38,67.88 264.62,65.12 265.69,63 266.56,61.5 267.25,60.62 267.75,60.38 268.06,60.12 268.19,59.88 268.12,59.62 267.88,59.38 268.19,58.19 269.06,56.06 270.5,53 272.5,49 274.38,44.94 276.12,40.81 277.75,36.62 279.25,32.38 280.47,29.09 281.41,26.78 282.06,25.44 282.44,25.06 283.09,24.72 284.03,24.41 285.25,24.12 286.75,23.88 287.97,23.78 288.91,23.84 289.56,24.06 289.94,24.44 290.28,24.97 290.59,25.66 290.88,26.5 291.12,27.5 291.25,28.38 291.25,29.12 291.12,29.75 290.88,30.25 290.81,30.69 290.94,31.06 291.25,31.38 291.75,31.62 292.06,31.94 292.19,32.31 292.12,32.75 291.88,33.25 291.81,33.69 291.94,34.06 292.25,34.38 292.75,34.62 293.81,37.06 295.44,41.69 297.62,48.5 300.38,57.5 303.06,65.69 305.69,73.06 308.25,79.62 310.75,85.38 312.56,89.75 313.69,92.75 314.12,94.38 313.88,94.62 314.03,94.97 314.59,95.41 315.56,95.94 316.94,96.56 318.41,97.03 319.97,97.34 321.62,97.5 323.38,97.5 324.72,97.59 325.66,97.78 326.19,98.06 326.31,98.44 326.31,98.88 326.19,99.38ZM117.94,99.94 117.56,100.56 117.16,100.97 116.72,101.16 116.25,101.12 115.75,100.88 115.31,100.75 114.94,100.75 114.62,100.88 114.38,101.12 112.34,101.28 108.53,101.34 102.94,101.31 95.56,101.19 90.66,100.72 88.22,99.91 88.25,98.75 90.75,97.25 92.56,93.31 93.69,86.94 94.12,78.12 93.88,66.88 93.59,58.09 93.28,51.78 92.94,47.94 92.56,46.56 92.06,45.75 91.44,45.5 90.69,45.81 89.81,46.69 89.22,47.41 88.91,47.97 88.88,48.38 89.12,48.62 89.19,49.06 89.06,49.69 88.75,50.5 88.25,51.5 87.75,52.25 87.25,52.75 86.75,53 86.25,53 85.94,53.12 85.81,53.38 85.88,53.75 86.12,54.25 85.69,55.69 84.56,58.06 82.75,61.38 80.25,65.62 78.31,69.06 76.94,71.69 76.12,73.5 75.88,74.5 75.44,75.5 74.81,76.5 74,77.5 73,78.5 72.31,79.31 71.94,79.94 71.88,80.38 72.12,80.62 71.75,82 70.75,84.5 69.12,88.12 66.88,92.88 65.09,96.53 63.78,99.09 62.94,100.56 62.56,100.94 62.09,101.22 61.53,101.41 60.88,101.5 60.12,101.5 58.84,99.72 57.03,96.16 54.69,90.81 51.81,83.69 48.69,76.5 45.31,69.25 41.69,61.94 37.81,54.56 34.75,50.31 32.5,49.19 31.06,51.19 30.44,56.31 29.91,62.09 29.47,68.53 29.12,75.62 28.88,83.38 28.91,89.34 29.22,93.53 29.81,95.94 30.69,96.56 31.72,97.03 32.91,97.34 34.25,97.5 35.75,97.5 36.91,97.72 37.72,98.16 38.19,98.81 38.31,99.69 36.81,100.38 33.69,100.88 28.94,101.19 22.56,101.31 17.56,101.31 13.94,101.19 11.69,100.94 10.81,100.56 10.91,99.97 11.97,99.16 14,98.12 17,96.88 19.44,93.19 21.31,87.06 22.62,78.5 23.38,67.5 24,59.19 24.5,53.56 24.88,50.62 25.12,50.38 25.31,49.19 25.44,47.06 25.5,44 25.5,40 25.22,36.78 24.66,34.34 23.81,32.69 22.69,31.81 21.28,31.09 19.59,30.53 17.62,30.12 15.38,29.88 13.75,29.44 12.75,28.81 12.38,28 12.62,27 14.12,26.25 16.88,25.75 20.88,25.5 26.12,25.5 30.12,25.56 32.88,25.69 34.38,25.88 34.62,26.12 34.94,26.25 35.31,26.25 35.75,26.12 36.25,25.88 36.72,25.78 37.16,25.84 37.56,26.06 37.94,26.44 39.94,30.06 43.56,36.94 48.81,47.06 55.69,60.44 62.31,67.62 68.69,68.62 74.81,63.44 80.69,52.06 85.34,43.28 88.78,37.09 91,33.5 92,32.5 92.69,31.69 93.06,31.06 93.12,30.62 92.88,30.38 92.81,30.12 92.94,29.88 93.25,29.62 93.75,29.38 94.06,29.12 94.19,28.88 94.12,28.62 93.88,28.38 93.81,28.12 93.94,27.88 94.25,27.62 94.75,27.38 95.06,27.12 95.19,26.88 95.12,26.62 94.88,26.38 95.47,26.22 96.91,26.16 99.19,26.19 102.31,26.31 105.03,26.28 107.34,26.09 109.25,25.75 110.75,25.25 112.16,24.91 113.47,24.72 114.69,24.69 115.81,24.81 116.5,25.12 116.75,25.62 116.56,26.31 115.94,27.19 115.09,27.91 114.03,28.47 112.75,28.88 111.25,29.12 109.84,29.47 108.53,29.91 107.31,30.44 106.19,31.06 105.47,35.41 105.16,43.47 105.25,55.25 105.75,70.75 106.28,82.53 106.84,90.59 107.44,94.94 108.06,95.56 109.09,96.09 110.53,96.53 112.38,96.88 114.62,97.12 116.34,97.41 117.53,97.72 118.19,98.06 118.31,98.44 118.31,98.88 118.19,99.38ZM283.44,70.19 278.06,70.31 274,70.25 271.25,70 269.81,69.56 269.69,68.94 270.03,67.59 270.84,65.53 272.12,62.75 273.88,59.25 275.31,56.31 276.44,53.94 277.25,52.12 277.75,50.88 278.06,49.88 278.19,49.12 278.12,48.62 277.88,48.38 277.81,48.12 277.94,47.88 278.25,47.62 278.75,47.38 279.19,46.94 279.56,46.31 279.88,45.5 280.12,44.5 280.41,43.72 280.72,43.16 281.06,42.81 281.44,42.69 282.12,43.81 283.12,46.19 284.44,49.81 286.06,54.69 287.41,58.47 288.47,61.16 289.25,62.75 289.75,63.25 290.06,63.69 290.19,64.06 290.12,64.38 289.88,64.62 289.81,65.12 289.94,65.88 290.25,66.88 290.75,68.12 289.78,69.09 287.34,69.78ZM168.81,95.31 167.69,96.19 166.09,97.16 164.03,98.22 161.5,99.38 158.5,100.62 155.25,101.5 151.75,102 148,102.12 144,101.88 140.69,101.5 138.06,101 136.12,100.38 134.88,99.62 133.53,98.53 132.09,97.09 130.56,95.31 128.94,93.19 127.78,91.47 127.09,90.16 126.88,89.25 127.12,88.75 127.19,88.31 127.06,87.94 126.75,87.62 126.25,87.38 125.81,86.38 125.44,84.62 125.12,82.12 124.88,78.88 125,75.56 125.5,72.19 126.38,68.75 127.62,65.25 128.84,62.28 130.03,59.84 131.19,57.94 132.31,56.56 133.25,55.56 134,54.94 134.56,54.69 134.94,54.81 135.25,54.75 135.5,54.5 135.69,54.06 135.81,53.44 136.72,52.66 138.41,51.72 140.88,50.62 144.12,49.38 147.31,48.5 150.44,48 153.5,47.88 156.5,48.12 159.16,48.66 161.47,49.47 163.44,50.56 165.06,51.94 166.41,53.22 167.47,54.41 168.25,55.5 168.75,56.5 169.12,58.06 169.38,60.19 169.5,62.88 169.5,66.12 169.41,68.66 169.22,70.47 168.94,71.56 168.56,71.94 166.34,72.28 162.28,72.59 156.38,72.88 148.62,73.12 142.78,73.72 138.84,74.66 136.81,75.94 136.69,77.56 136.78,79.22 137.09,80.91 137.62,82.62 138.38,84.38 139.28,86.03 140.34,87.59 141.56,89.06 142.94,90.44 144.34,91.59 145.78,92.53 147.25,93.25 148.75,93.75 150.44,94.12 152.31,94.38 154.38,94.5 156.62,94.5 158.88,94.25 161.12,93.75 163.38,93 165.62,92 167.41,91.47 168.72,91.41 169.56,91.81 169.94,92.69 169.94,93.56 169.56,94.44ZM357.94,100.56 357.56,100.94 355.62,101.19 352.12,101.31 347.06,101.31 340.44,101.19 335.56,100.94 332.44,100.56 331.06,100.06 331.44,99.44 331.97,98.91 332.66,98.47 333.5,98.12 334.5,97.88 335.41,97.53 336.22,97.09 336.94,96.56 337.56,95.94 338.03,93.41 338.34,88.97 338.5,82.62 338.5,74.38 338.44,67.88 338.31,63.12 338.12,60.12 337.88,58.88 337.59,57.84 337.28,57.03 336.94,56.44 336.56,56.06 335.91,55.78 334.97,55.59 333.75,55.5 332.25,55.5 331.09,55.34 330.28,55.03 329.81,54.56 329.69,53.94 329.94,53.31 330.56,52.69 331.56,52.06 332.94,51.44 334.94,50.81 337.56,50.19 340.81,49.56 344.69,48.94 347.53,51.28 349.34,56.59 350.12,64.88 349.88,76.12 349.78,84.78 349.84,90.84 350.06,94.31 350.44,95.19 351.16,95.91 352.22,96.47 353.62,96.88 355.38,97.12 356.72,97.47 357.66,97.91 358.19,98.44 358.31,99.06 358.31,99.62 358.19,100.12ZM219.12,74.38 218.88,74.62 218.69,75.69 218.56,77.56 218.5,80.25 218.5,83.75 218.28,86.59 217.84,88.78 217.19,90.31 216.31,91.19 215.34,91.97 214.28,92.66 213.12,93.25 211.88,93.75 210.56,94.12 209.19,94.38 207.75,94.5 206.25,94.5 204.88,94.44 203.62,94.31 202.5,94.12 201.5,93.88 200.44,93.44 199.31,92.81 198.12,92 196.88,91 195.72,89.84 194.66,88.53 193.69,87.06 192.81,85.44 192.09,83.22 191.53,80.41 191.12,77 190.88,73 190.88,69.5 191.12,66.5 191.62,64 192.38,62 193.16,60.28 193.97,58.84 194.81,57.69 195.69,56.81 197.03,55.97 198.84,55.16 201.12,54.38 203.88,53.62 206.25,53.12 208.25,52.88 209.88,52.88 211.12,53.12 212.47,53.53 213.91,54.09 215.44,54.81 217.06,55.69 218.28,57.41 219.09,59.97 219.5,63.38 219.5,67.62 219.44,70.88 219.31,73.12ZM158.56,65.69 157.94,66.81 156.22,67.72 153.41,68.41 149.5,68.88 144.5,69.12 140.72,68.91 138.16,68.22 136.81,67.06 136.69,65.44 136.88,63.75 137.38,62 138.19,60.19 139.31,58.31 140.41,56.78 141.47,55.59 142.5,54.75 143.5,54.25 144.62,53.88 145.88,53.62 147.25,53.5 148.75,53.5 150.22,53.72 151.66,54.16 153.06,54.81 154.44,55.69 155.66,56.78 156.72,58.09 157.62,59.62 158.38,61.38 158.78,62.97 158.84,64.41Z"/>
  <circle fill="#EA4B22" cx="337.5" cy="27" r="16"/>
  <rect fill="#E2231A"  x="28"  y="111" width="104" height="4"/>
  <rect fill="#04205F" x="133" y="111" width="103" height="4"/>
  <rect fill="#E2231A"  x="238" y="111" width="109" height="4"/>
</svg>