<svg xmlns="http://www.w3.org/2000/svg" viewBox="0 0 480 360" font-family="Segoe UI, Helvetica, Arial, sans-serif">
  <rect width="480" height="360" fill="#ffffff"/>
  <text x="240" y="24" text-anchor="middle" font-size="15" font-weight="600" fill="#1a1a1a">LLM ideology recovered by Multidimensional IRT</text>

  <!-- zero gridlines -->
  <line x1="250" y1="40" x2="250" y2="300" stroke="#e5e7eb" stroke-width="1"/>
  <line x1="60" y1="170" x2="440" y2="170" stroke="#e5e7eb" stroke-width="1"/>

  <!-- ideal y=x trend line -->
  <line x1="60" y1="300" x2="440" y2="40" stroke="#9ca3af" stroke-width="1.5" stroke-dasharray="5 4"/>

  <!-- axes -->
  <line x1="60" y1="40" x2="60" y2="300" stroke="#374151" stroke-width="1.5"/>
  <line x1="60" y1="300" x2="440" y2="300" stroke="#374151" stroke-width="1.5"/>

  <!-- data points -->
  <g fill="#2563eb" opacity="0.85">
    <circle cx="69.5" cy="287" r="4"/>
    <circle cx="88.5" cy="284.4" r="4"/>
    <circle cx="101.8" cy="263.6" r="4"/>
    <circle cx="117" cy="254.5" r="4"/>
    <circle cx="132.2" cy="255.8" r="4"/>
    <circle cx="145.5" cy="235" r="4"/>
    <circle cx="164.5" cy="232.4" r="4"/>
    <circle cx="183.5" cy="209" r="4"/>
    <circle cx="196.8" cy="212.9" r="4"/>
    <circle cx="215.8" cy="185.6" r="4"/>
    <circle cx="231" cy="189.5" r="4"/>
    <circle cx="246.2" cy="167.4" r="4"/>
    <circle cx="265.2" cy="163.5" r="4"/>
    <circle cx="284.2" cy="141.4" r="4"/>
    <circle cx="303.2" cy="137.5" r="4"/>
    <circle cx="322.2" cy="127.1" r="4"/>
    <circle cx="341.2" cy="102.4" r="4"/>
    <circle cx="360.2" cy="98.5" r="4"/>
    <circle cx="379.2" cy="76.4" r="4"/>
    <circle cx="398.2" cy="79" r="4"/>
    <circle cx="417.2" cy="59.5" r="4"/>
    <circle cx="430.5" cy="50.4" r="4"/>
  </g>

  <!-- correlation annotation -->
  <text x="78" y="62" font-size="17" font-weight="700" fill="#111827">r = 0.98</text>

  <!-- tick labels: x -->
  <text x="60" y="316" text-anchor="middle" font-size="11" fill="#6b7280">&#8722;1</text>
  <text x="250" y="316" text-anchor="middle" font-size="11" fill="#6b7280">0</text>
  <text x="440" y="316" text-anchor="middle" font-size="11" fill="#6b7280">+1</text>
  <!-- tick labels: y -->
  <text x="52" y="304" text-anchor="end" font-size="11" fill="#6b7280">&#8722;1</text>
  <text x="52" y="174" text-anchor="end" font-size="11" fill="#6b7280">0</text>
  <text x="52" y="44" text-anchor="end" font-size="11" fill="#6b7280">+1</text>

  <!-- axis titles -->
  <text x="250" y="342" text-anchor="middle" font-size="12" fill="#374151">DW&#8209;NOMINATE  (human ideology benchmark)</text>
  <text x="20" y="170" text-anchor="middle" font-size="12" fill="#374151" transform="rotate(-90 20 170)">MIRT latent score &#952; (dim 1)</text>
</svg>
